STARTFONT 2.1
COMMENT $Xorg: $
COMMENT ISO10646-1 extension by Markus Kuhn <mkuhn@acm.org>, 2001-03-20
COMMENT  (c) Copyright Bigelow & Holmes 1986, 1985. Lucida is a registered
COMMENT  trademark of Bigelow & Holmes. See LEGAL NOTICE file for terms 
COMMENT  of the license. 
FONT -B&H-LucidaBright-DemiBold-I-Normal--14-100-100-100-P-84-ISO10646-1
SIZE 10 100 100
FONTBOUNDINGBOX 24 23 -8 -7
STARTPROPERTIES 22
COMMENT Begin LogicalFontDescription
FONTNAME_REGISTRY ""
FOUNDRY "B&H"
FAMILY_NAME "LucidaBright"
WEIGHT_NAME "DemiBold"
SLANT "I"
SETWIDTH_NAME "Normal"
ADD_STYLE_NAME ""
PIXEL_SIZE 14
POINT_SIZE 100
RESOLUTION_X 100
RESOLUTION_Y 100
SPACING "P"
AVERAGE_WIDTH 84
CHARSET_REGISTRY "ISO10646"
CHARSET_ENCODING "1"
COMMENT END LogicalFontDescription
FONT_ASCENT 13
FONT_DESCENT 3
DEFAULT_CHAR 0
COPYRIGHT "Copyright Bigelow & Holmes 1986, 1985."
FACE_NAME "Lucida Bright Demibold Italic"
X_HEIGHT 7
CAP_HEIGHT 10
ENDPROPERTIES
CHARS 723
STARTCHAR char0
ENCODING 0
SWIDTH 827 0
DWIDTH 12 0
BBX 13 9 0 0
BITMAP
AAA8
0000
8008
0000
8008
0000
8008
0000
AAA8
ENDCHAR
STARTCHAR space
ENCODING 32
SWIDTH 333 0
DWIDTH 4 0
BBX 1 1 0 0
BITMAP
00
ENDCHAR
STARTCHAR exclam
ENCODING 33
SWIDTH 265 0
DWIDTH 4 0
BBX 4 10 1 0
BITMAP
30
30
20
60
60
60
40
00
C0
C0
ENDCHAR
STARTCHAR quotedbl
ENCODING 34
SWIDTH 451 0
DWIDTH 6 0
BBX 5 4 2 6
BITMAP
D8
D8
D8
90
ENDCHAR
STARTCHAR numbersign
ENCODING 35
SWIDTH 636 0
DWIDTH 9 0
BBX 9 10 1 0
BITMAP
0480
0900
0900
7F80
1200
2400
FF00
4800
4800
9000
ENDCHAR
STARTCHAR dollar
ENCODING 36
SWIDTH 636 0
DWIDTH 9 0
BBX 8 13 2 -2
BITMAP
04
1F
39
29
38
18
0C
16
96
9C
F8
20
20
ENDCHAR
STARTCHAR percent
ENCODING 37
SWIDTH 772 0
DWIDTH 11 0
BBX 10 10 1 0
BITMAP
7840
4880
C900
DA00
7400
0BC0
1A40
3640
66C0
C380
ENDCHAR
STARTCHAR ampersand
ENCODING 38
SWIDTH 773 0
DWIDTH 11 0
BBX 11 10 1 0
BITMAP
0F00
1900
1900
1E00
2DE0
CCC0
C680
C700
E300
7FC0
ENDCHAR
STARTCHAR quotesingle
ENCODING 39
SWIDTH 247 0
DWIDTH 3 0
BBX 2 4 2 6
BITMAP
C0
C0
C0
40
ENDCHAR
STARTCHAR parenleft
ENCODING 40
SWIDTH 336 0
DWIDTH 5 0
BBX 5 13 1 -3
BITMAP
08
10
20
60
60
C0
C0
C0
C0
C0
C0
40
20
ENDCHAR
STARTCHAR parenright
ENCODING 41
SWIDTH 336 0
DWIDTH 5 0
BBX 5 13 0 -3
BITMAP
10
10
18
18
18
18
18
18
10
30
20
40
80
ENDCHAR
STARTCHAR asterisk
ENCODING 42
SWIDTH 434 0
DWIDTH 6 0
BBX 5 5 2 5
BITMAP
30
A8
D0
F0
90
ENDCHAR
STARTCHAR plus
ENCODING 43
SWIDTH 636 0
DWIDTH 9 0
BBX 8 8 1 0
BITMAP
08
08
08
08
FF
10
10
10
ENDCHAR
STARTCHAR comma
ENCODING 44
SWIDTH 265 0
DWIDTH 4 0
BBX 3 5 0 -3
BITMAP
60
60
E0
40
C0
ENDCHAR
STARTCHAR hyphen
ENCODING 45
SWIDTH 289 0
DWIDTH 4 0
BBX 3 1 1 4
BITMAP
E0
ENDCHAR
STARTCHAR period
ENCODING 46
SWIDTH 265 0
DWIDTH 4 0
BBX 3 2 1 0
BITMAP
E0
E0
ENDCHAR
STARTCHAR slash
ENCODING 47
SWIDTH 515 0
DWIDTH 7 0
BBX 10 13 0 -3
BITMAP
00C0
0080
0100
0300
0200
0400
0C00
0800
1000
3000
2000
4000
C000
ENDCHAR
STARTCHAR zero
ENCODING 48
SWIDTH 623 0
DWIDTH 9 0
BBX 8 10 1 0
BITMAP
1E
33
63
63
C3
C3
C3
C6
CC
78
ENDCHAR
STARTCHAR one
ENCODING 49
SWIDTH 636 0
DWIDTH 9 0
BBX 6 10 2 0
BITMAP
3C
0C
18
18
18
18
18
30
30
FC
ENDCHAR
STARTCHAR two
ENCODING 50
SWIDTH 636 0
DWIDTH 9 0
BBX 8 10 1 0
BITMAP
1E
27
23
03
0E
18
20
40
FE
FC
ENDCHAR
STARTCHAR three
ENCODING 51
SWIDTH 636 0
DWIDTH 9 0
BBX 8 10 1 0
BITMAP
3E
23
23
06
38
06
06
86
8E
F8
ENDCHAR
STARTCHAR four
ENCODING 52
SWIDTH 636 0
DWIDTH 9 0
BBX 8 10 1 0
BITMAP
03
07
0A
16
26
46
FF
0C
0C
1E
ENDCHAR
STARTCHAR five
ENCODING 53
SWIDTH 636 0
DWIDTH 9 0
BBX 8 10 2 0
BITMAP
3F
20
20
78
0C
06
06
86
8C
F8
ENDCHAR
STARTCHAR six
ENCODING 54
SWIDTH 636 0
DWIDTH 9 0
BBX 8 10 2 0
BITMAP
0F
31
61
60
FE
E6
C3
C6
46
38
ENDCHAR
STARTCHAR seven
ENCODING 55
SWIDTH 636 0
DWIDTH 9 0
BBX 8 10 2 0
BITMAP
7F
7F
02
04
08
10
30
60
C0
C0
ENDCHAR
STARTCHAR eight
ENCODING 56
SWIDTH 636 0
DWIDTH 9 0
BBX 8 10 1 0
BITMAP
1E
33
33
32
1C
6E
C3
C3
E6
7C
ENDCHAR
STARTCHAR nine
ENCODING 57
SWIDTH 636 0
DWIDTH 9 0
BBX 8 10 1 0
BITMAP
1E
33
63
63
67
3B
07
86
8C
F8
ENDCHAR
STARTCHAR colon
ENCODING 58
SWIDTH 265 0
DWIDTH 4 0
BBX 4 7 1 0
BITMAP
30
70
00
00
00
E0
C0
ENDCHAR
STARTCHAR semicolon
ENCODING 59
SWIDTH 265 0
DWIDTH 4 0
BBX 4 10 0 -3
BITMAP
30
30
00
00
00
60
60
E0
40
C0
ENDCHAR
STARTCHAR less
ENCODING 60
SWIDTH 636 0
DWIDTH 9 0
BBX 9 8 1 0
BITMAP
0080
0300
1C00
E000
6000
1800
0600
0300
ENDCHAR
STARTCHAR equal
ENCODING 61
SWIDTH 636 0
DWIDTH 9 0
BBX 9 4 1 2
BITMAP
FF80
0000
0000
FF80
ENDCHAR
STARTCHAR greater
ENCODING 62
SWIDTH 636 0
DWIDTH 9 0
BBX 9 8 0 0
BITMAP
6000
3000
0C00
0300
0380
1C00
6000
8000
ENDCHAR
STARTCHAR question
ENCODING 63
SWIDTH 493 0
DWIDTH 7 0
BBX 6 10 2 0
BITMAP
78
CC
8C
08
10
20
60
00
C0
C0
ENDCHAR
STARTCHAR at
ENCODING 64
SWIDTH 861 0
DWIDTH 12 0
BBX 11 10 1 0
BITMAP
0F80
3060
4620
49A0
9120
9320
9720
9DC0
4200
3C00
ENDCHAR
STARTCHAR A
ENCODING 65
SWIDTH 765 0
DWIDTH 11 0
BBX 11 10 0 0
BITMAP
0100
0300
0580
0580
0980
1180
1FC0
20C0
40C0
E1E0
ENDCHAR
STARTCHAR B
ENCODING 66
SWIDTH 651 0
DWIDTH 9 0
BBX 9 10 1 0
BITMAP
3F80
1980
1180
3300
3E00
3200
3300
2300
6700
FE00
ENDCHAR
STARTCHAR C
ENCODING 67
SWIDTH 740 0
DWIDTH 10 0
BBX 10 10 1 0
BITMAP
0FC0
38C0
60C0
6000
E000
C000
C000
E000
6100
3E00
ENDCHAR
STARTCHAR D
ENCODING 68
SWIDTH 822 0
DWIDTH 11 0
BBX 11 10 1 0
BITMAP
3F80
18C0
1860
3060
3060
3060
30C0
30C0
6380
FE00
ENDCHAR
STARTCHAR E
ENCODING 69
SWIDTH 630 0
DWIDTH 9 0
BBX 9 10 1 0
BITMAP
3F80
1880
1800
3200
3E00
3200
3000
6000
6100
FE00
ENDCHAR
STARTCHAR F
ENCODING 70
SWIDTH 602 0
DWIDTH 8 0
BBX 9 10 1 0
BITMAP
3F80
1880
1000
3200
3E00
3200
3000
2000
6000
F000
ENDCHAR
STARTCHAR G
ENCODING 71
SWIDTH 780 0
DWIDTH 11 0
BBX 10 10 1 0
BITMAP
0FC0
38C0
7040
6000
E000
C7C0
C180
C380
6300
3F00
ENDCHAR
STARTCHAR H
ENCODING 72
SWIDTH 827 0
DWIDTH 12 0
BBX 13 10 0 0
BITMAP
3EF8
1870
1860
1860
3FE0
3060
30C0
30C0
70C0
FBE0
ENDCHAR
STARTCHAR I
ENCODING 73
SWIDTH 372 0
DWIDTH 5 0
BBX 6 10 1 0
BITMAP
3C
18
38
30
30
30
30
60
60
F0
ENDCHAR
STARTCHAR J
ENCODING 74
SWIDTH 478 0
DWIDTH 7 0
BBX 9 13 0 -3
BITMAP
0F80
0700
0600
0600
0600
0600
0E00
0C00
0C00
0C00
DC00
9800
F000
ENDCHAR
STARTCHAR K
ENCODING 75
SWIDTH 746 0
DWIDTH 10 0
BBX 11 10 0 0
BITMAP
3CE0
18C0
1900
3A00
3C00
3E00
3700
3300
6180
F3C0
ENDCHAR
STARTCHAR L
ENCODING 76
SWIDTH 611 0
DWIDTH 9 0
BBX 8 10 1 0
BITMAP
3C
18
18
30
30
30
30
31
61
FF
ENDCHAR
STARTCHAR M
ENCODING 77
SWIDTH 926 0
DWIDTH 13 0
BBX 14 10 0 0
BITMAP
381C
1838
1C70
2CB0
2CB0
2F30
2630
2660
4060
E0F0
ENDCHAR
STARTCHAR N
ENCODING 78
SWIDTH 797 0
DWIDTH 11 0
BBX 12 10 1 0
BITMAP
3870
1820
1C60
2C40
2640
2640
2340
2380
4180
E080
ENDCHAR
STARTCHAR O
ENCODING 79
SWIDTH 831 0
DWIDTH 12 0
BBX 11 10 2 0
BITMAP
0F80
38C0
70C0
60E0
E0E0
C0C0
C0C0
C180
6300
3C00
ENDCHAR
STARTCHAR P
ENCODING 80
SWIDTH 628 0
DWIDTH 9 0
BBX 9 10 1 0
BITMAP
3F00
1980
1180
3180
3300
3E00
3000
6000
6000
F000
ENDCHAR
STARTCHAR Q
ENCODING 81
SWIDTH 835 0
DWIDTH 12 0
BBX 12 13 2 -3
BITMAP
0F80
38C0
70C0
60E0
E0E0
C0C0
C0C0
C1C0
6380
3F00
0400
0300
00F0
ENDCHAR
STARTCHAR R
ENCODING 82
SWIDTH 711 0
DWIDTH 10 0
BBX 10 10 0 0
BITMAP
3FC0
18C0
18C0
1980
3F00
3600
3300
3300
7180
F1C0
ENDCHAR
STARTCHAR S
ENCODING 83
SWIDTH 587 0
DWIDTH 8 0
BBX 8 10 1 0
BITMAP
1F
31
71
30
38
1E
06
86
8E
F8
ENDCHAR
STARTCHAR T
ENCODING 84
SWIDTH 716 0
DWIDTH 10 0
BBX 10 10 2 0
BITMAP
FFC0
8C40
0C00
1C00
1800
1800
1800
1800
3800
7C00
ENDCHAR
STARTCHAR U
ENCODING 85
SWIDTH 775 0
DWIDTH 11 0
BBX 10 10 2 0
BITMAP
F9C0
6080
6080
6080
E100
C100
C100
C100
E200
7C00
ENDCHAR
STARTCHAR V
ENCODING 86
SWIDTH 741 0
DWIDTH 10 0
BBX 11 10 2 0
BITMAP
F0E0
6040
6080
7180
3100
3200
3600
3C00
1800
1800
ENDCHAR
STARTCHAR W
ENCODING 87
SWIDTH 922 0
DWIDTH 13 0
BBX 13 10 2 0
BITMAP
F238
6310
6720
6720
6B40
6B40
7380
7380
6300
6300
ENDCHAR
STARTCHAR X
ENCODING 88
SWIDTH 672 0
DWIDTH 9 0
BBX 11 10 0 0
BITMAP
3CE0
1840
0C80
0D00
0E00
0E00
1700
2300
4380
E780
ENDCHAR
STARTCHAR Y
ENCODING 89
SWIDTH 669 0
DWIDTH 9 0
BBX 10 10 2 0
BITMAP
F1C0
6080
7100
3200
3C00
1800
1800
3000
3000
7800
ENDCHAR
STARTCHAR Z
ENCODING 90
SWIDTH 684 0
DWIDTH 10 0
BBX 10 10 1 0
BITMAP
3FC0
2180
0300
0700
0E00
1C00
3800
3000
6180
FF00
ENDCHAR
STARTCHAR bracketleft
ENCODING 91
SWIDTH 336 0
DWIDTH 5 0
BBX 6 13 0 -3
BITMAP
1C
30
30
30
30
20
60
60
60
40
40
C0
E0
ENDCHAR
STARTCHAR backslash
ENCODING 92
SWIDTH 515 0
DWIDTH 7 0
BBX 4 13 2 -3
BITMAP
80
80
40
40
40
40
60
20
20
20
20
10
10
ENDCHAR
STARTCHAR bracketright
ENCODING 93
SWIDTH 336 0
DWIDTH 5 0
BBX 6 13 0 -3
BITMAP
1C
0C
08
18
18
18
18
10
30
30
30
30
E0
ENDCHAR
STARTCHAR asciicircum
ENCODING 94
SWIDTH 636 0
DWIDTH 9 0
BBX 8 8 1 2
BITMAP
04
04
0C
12
32
22
43
81
ENDCHAR
STARTCHAR underscore
ENCODING 95
SWIDTH 500 0
DWIDTH 7 0
BBX 6 1 0 -2
BITMAP
FC
ENDCHAR
STARTCHAR grave
ENCODING 96
SWIDTH 599 0
DWIDTH 8 0
BBX 3 2 4 8
BITMAP
C0
20
ENDCHAR
STARTCHAR a
ENCODING 97
SWIDTH 634 0
DWIDTH 9 0
BBX 8 7 1 0
BITMAP
1F
23
62
C6
CE
D6
E7
ENDCHAR
STARTCHAR b
ENCODING 98
SWIDTH 633 0
DWIDTH 9 0
BBX 8 10 1 0
BITMAP
70
30
30
67
7B
73
63
46
C4
F8
ENDCHAR
STARTCHAR c
ENCODING 99
SWIDTH 524 0
DWIDTH 7 0
BBX 7 7 1 0
BITMAP
1E
22
62
C0
C0
C4
78
ENDCHAR
STARTCHAR d
ENCODING 100
SWIDTH 634 0
DWIDTH 9 0
BBX 9 10 1 0
BITMAP
0380
0180
0300
1F00
2300
6300
C700
CE00
DE00
F700
ENDCHAR
STARTCHAR e
ENCODING 101
SWIDTH 548 0
DWIDTH 8 0
BBX 7 7 1 0
BITMAP
1C
66
4C
F8
C0
C6
7C
ENDCHAR
STARTCHAR f
ENCODING 102
SWIDTH 415 0
DWIDTH 6 0
BBX 8 14 1 -3
BITMAP
0F
19
19
30
7C
30
30
70
60
60
60
60
C0
C0
ENDCHAR
STARTCHAR g
ENCODING 103
SWIDTH 628 0
DWIDTH 9 0
BBX 9 10 0 -3
BITMAP
0F80
3180
2300
6300
E700
6B00
7700
8600
C600
F800
ENDCHAR
STARTCHAR h
ENCODING 104
SWIDTH 656 0
DWIDTH 9 0
BBX 8 10 1 0
BITMAP
70
30
30
67
6B
73
67
66
C6
C7
ENDCHAR
STARTCHAR i
ENCODING 105
SWIDTH 319 0
DWIDTH 4 0
BBX 4 10 1 0
BITMAP
30
30
00
E0
60
60
60
E0
C0
E0
ENDCHAR
STARTCHAR j
ENCODING 106
SWIDTH 381 0
DWIDTH 5 0
BBX 8 13 0 -3
BITMAP
03
03
00
0E
06
06
0E
0C
0C
0C
98
98
F0
ENDCHAR
STARTCHAR k
ENCODING 107
SWIDTH 626 0
DWIDTH 9 0
BBX 8 10 1 0
BITMAP
70
30
30
73
66
6C
78
6C
CE
C7
ENDCHAR
STARTCHAR l
ENCODING 108
SWIDTH 319 0
DWIDTH 4 0
BBX 4 10 1 0
BITMAP
70
30
70
60
60
60
60
E0
C0
E0
ENDCHAR
STARTCHAR m
ENCODING 109
SWIDTH 969 0
DWIDTH 14 0
BBX 12 7 1 0
BITMAP
E670
6FF0
77B0
6730
4660
C660
CE70
ENDCHAR
STARTCHAR n
ENCODING 110
SWIDTH 656 0
DWIDTH 9 0
BBX 8 7 1 0
BITMAP
F7
6B
73
67
66
C6
C7
ENDCHAR
STARTCHAR o
ENCODING 111
SWIDTH 599 0
DWIDTH 8 0
BBX 8 7 1 0
BITMAP
1E
23
63
C3
C6
CC
78
ENDCHAR
STARTCHAR p
ENCODING 112
SWIDTH 639 0
DWIDTH 9 0
BBX 9 10 1 -3
BITMAP
7780
3D80
3980
7180
6300
6200
7C00
6000
C000
C000
ENDCHAR
STARTCHAR q
ENCODING 113
SWIDTH 630 0
DWIDTH 9 0
BBX 8 10 1 -3
BITMAP
1F
23
63
C6
CE
DE
E6
0E
0C
0C
ENDCHAR
STARTCHAR r
ENCODING 114
SWIDTH 496 0
DWIDTH 7 0
BBX 7 7 1 0
BITMAP
E6
6C
70
60
60
C0
C0
ENDCHAR
STARTCHAR s
ENCODING 115
SWIDTH 479 0
DWIDTH 7 0
BBX 7 7 1 0
BITMAP
3E
64
70
38
9C
8C
F8
ENDCHAR
STARTCHAR t
ENCODING 116
SWIDTH 375 0
DWIDTH 5 0
BBX 5 9 1 0
BITMAP
70
60
F8
60
60
60
C0
C0
70
ENDCHAR
STARTCHAR u
ENCODING 117
SWIDTH 655 0
DWIDTH 9 0
BBX 8 7 1 0
BITMAP
E7
63
66
E6
CE
D6
EF
ENDCHAR
STARTCHAR v
ENCODING 118
SWIDTH 584 0
DWIDTH 8 0
BBX 8 7 1 0
BITMAP
E3
63
62
34
38
30
20
ENDCHAR
STARTCHAR w
ENCODING 119
SWIDTH 822 0
DWIDTH 12 0
BBX 11 7 1 0
BITMAP
E460
6660
6640
2E80
3380
3300
2200
ENDCHAR
STARTCHAR x
ENCODING 120
SWIDTH 534 0
DWIDTH 7 0
BBX 7 7 1 0
BITMAP
66
36
3C
18
38
CC
CE
ENDCHAR
STARTCHAR y
ENCODING 121
SWIDTH 586 0
DWIDTH 8 0
BBX 10 10 0 -3
BITMAP
79C0
38C0
1880
1900
1A00
0C00
0C00
0800
1000
E000
ENDCHAR
STARTCHAR z
ENCODING 122
SWIDTH 567 0
DWIDTH 8 0
BBX 8 7 1 0
BITMAP
3F
46
0C
18
30
62
FE
ENDCHAR
STARTCHAR braceleft
ENCODING 123
SWIDTH 361 0
DWIDTH 5 0
BBX 5 13 1 -3
BITMAP
38
30
30
30
30
60
C0
40
60
60
C0
C0
60
ENDCHAR
STARTCHAR bar
ENCODING 124
SWIDTH 253 0
DWIDTH 4 0
BBX 4 13 1 -3
BITMAP
10
10
20
20
20
20
60
40
40
40
40
80
80
ENDCHAR
STARTCHAR braceright
ENCODING 125
SWIDTH 361 0
DWIDTH 5 0
BBX 5 13 0 -3
BITMAP
30
18
18
30
30
10
18
30
60
60
60
60
E0
ENDCHAR
STARTCHAR asciitilde
ENCODING 126
SWIDTH 636 0
DWIDTH 9 0
BBX 8 3 1 2
BITMAP
71
99
8E
ENDCHAR
STARTCHAR space
ENCODING 160
SWIDTH 333 0
DWIDTH 4 0
BBX 1 1 0 0
BITMAP
00
ENDCHAR
STARTCHAR exclamdown
ENCODING 161
SWIDTH 265 0
DWIDTH 4 0
BBX 4 10 0 -3
BITMAP
30
30
00
20
20
40
40
40
40
C0
ENDCHAR
STARTCHAR cent
ENCODING 162
SWIDTH 636 0
DWIDTH 9 0
BBX 7 10 2 0
BITMAP
04
1E
3A
6A
C8
C8
D0
D0
7C
20
ENDCHAR
STARTCHAR sterling
ENCODING 163
SWIDTH 636 0
DWIDTH 9 0
BBX 8 10 2 0
BITMAP
0F
19
18
30
7C
30
30
60
FC
FC
ENDCHAR
STARTCHAR currency
ENCODING 164
SWIDTH 636 0
DWIDTH 9 0
BBX 10 10 1 0
BITMAP
6040
2080
1F00
1100
2100
2100
3300
3E00
4100
8080
ENDCHAR
STARTCHAR yen
ENCODING 165
SWIDTH 636 0
DWIDTH 9 0
BBX 10 10 2 0
BITMAP
F1C0
6180
3200
1C00
7E00
1800
7E00
3000
3000
7800
ENDCHAR
STARTCHAR brokenbar
ENCODING 166
SWIDTH 253 0
DWIDTH 4 0
BBX 4 13 1 -3
BITMAP
10
10
20
20
20
20
00
40
40
40
40
80
80
ENDCHAR
STARTCHAR section
ENCODING 167
SWIDTH 636 0
DWIDTH 9 0
BBX 8 13 1 -3
BITMAP
1F
31
31
30
3C
6E
62
72
3C
0E
86
8C
F8
ENDCHAR
STARTCHAR dieresis
ENCODING 168
SWIDTH 599 0
DWIDTH 8 0
BBX 5 1 4 9
BITMAP
D8
ENDCHAR
STARTCHAR copyright
ENCODING 169
SWIDTH 853 0
DWIDTH 12 0
BBX 12 10 1 0
BITMAP
1F00
20C0
4FA0
98A0
9020
9030
9020
4F20
20C0
1F00
ENDCHAR
STARTCHAR ordfeminine
ENCODING 170
SWIDTH 468 0
DWIDTH 7 0
BBX 6 6 2 4
BITMAP
3C
6C
CC
D8
E8
DC
ENDCHAR
STARTCHAR guillemotleft
ENCODING 171
SWIDTH 527 0
DWIDTH 7 0
BBX 7 7 1 0
BITMAP
12
34
6C
D8
48
6C
24
ENDCHAR
STARTCHAR logicalnot
ENCODING 172
SWIDTH 636 0
DWIDTH 9 0
BBX 8 4 1 2
BITMAP
FF
01
01
02
ENDCHAR
STARTCHAR hyphen
ENCODING 173
SWIDTH 289 0
DWIDTH 4 0
BBX 3 1 1 4
BITMAP
E0
ENDCHAR
STARTCHAR registered
ENCODING 174
SWIDTH 636 0
DWIDTH 9 0
BBX 7 7 2 3
BITMAP
38
44
BA
AA
BA
44
38
ENDCHAR
STARTCHAR macron
ENCODING 175
SWIDTH 599 0
DWIDTH 8 0
BBX 4 1 4 9
BITMAP
F0
ENDCHAR
STARTCHAR degree
ENCODING 176
SWIDTH 259 0
DWIDTH 4 0
BBX 2 2 3 8
BITMAP
C0
C0
ENDCHAR
STARTCHAR plusminus
ENCODING 177
SWIDTH 636 0
DWIDTH 9 0
BBX 9 8 0 0
BITMAP
0400
0400
0400
7F80
0800
0800
0000
FF00
ENDCHAR
STARTCHAR twosuperior
ENCODING 178
SWIDTH 381 0
DWIDTH 5 0
BBX 5 6 -8 4
BITMAP
78
48
18
30
40
F0
ENDCHAR
STARTCHAR threesuperior
ENCODING 179
SWIDTH 381 0
DWIDTH 5 0
BBX 5 6 -8 4
BITMAP
70
58
70
10
90
E0
ENDCHAR
STARTCHAR acute
ENCODING 180
SWIDTH 599 0
DWIDTH 8 0
BBX 4 2 5 8
BITMAP
70
C0
ENDCHAR
STARTCHAR mu
ENCODING 181
SWIDTH 687 0
DWIDTH 10 0
BBX 9 10 1 -3
BITMAP
7380
3180
3300
6300
6700
6B00
7780
4000
C000
C000
ENDCHAR
STARTCHAR paragraph
ENCODING 182
SWIDTH 636 0
DWIDTH 9 0
BBX 6 13 2 -3
BITMAP
7C
F4
E4
E8
68
28
28
28
48
48
48
50
50
ENDCHAR
STARTCHAR periodcentered
ENCODING 183
SWIDTH 636 0
DWIDTH 9 0
BBX 2 2 4 3
BITMAP
C0
C0
ENDCHAR
STARTCHAR cedilla
ENCODING 184
SWIDTH 599 0
DWIDTH 8 0
BBX 3 3 2 -3
BITMAP
60
20
E0
ENDCHAR
STARTCHAR onesuperior
ENCODING 185
SWIDTH 381 0
DWIDTH 5 0
BBX 3 6 -8 4
BITMAP
60
20
20
40
40
E0
ENDCHAR
STARTCHAR ordmasculine
ENCODING 186
SWIDTH 468 0
DWIDTH 7 0
BBX 6 6 2 4
BITMAP
3C
6C
CC
CC
C8
70
ENDCHAR
STARTCHAR guillemotright
ENCODING 187
SWIDTH 527 0
DWIDTH 7 0
BBX 7 7 1 0
BITMAP
48
6C
24
36
6C
58
90
ENDCHAR
STARTCHAR onequarter
ENCODING 188
SWIDTH 818 0
DWIDTH 11 0
BBX 11 10 2 0
BITMAP
6060
20C0
2180
4300
46C0
EDC0
1A80
37C0
6080
C1C0
ENDCHAR
STARTCHAR onehalf
ENCODING 189
SWIDTH 818 0
DWIDTH 11 0
BBX 11 10 2 0
BITMAP
6060
20C0
2180
4300
47C0
EE40
18C0
3180
6200
C780
ENDCHAR
STARTCHAR threequarters
ENCODING 190
SWIDTH 818 0
DWIDTH 11 0
BBX 12 10 3 0
BITMAP
7030
5860
70C0
1180
9360
E6E0
0D40
1BE0
3040
60E0
ENDCHAR
STARTCHAR questiondown
ENCODING 191
SWIDTH 493 0
DWIDTH 7 0
BBX 6 10 0 -3
BITMAP
0C
0C
00
18
10
20
40
C4
C4
78
ENDCHAR
STARTCHAR Agrave
ENCODING 192
SWIDTH 765 0
DWIDTH 11 0
BBX 11 13 0 0
BITMAP
0300
0080
0000
0100
0300
0580
0580
0980
1180
1FC0
20C0
40C0
E1E0
ENDCHAR
STARTCHAR Aacute
ENCODING 193
SWIDTH 765 0
DWIDTH 11 0
BBX 11 13 0 0
BITMAP
01C0
0300
0000
0100
0300
0580
0580
0980
1180
1FC0
20C0
40C0
E1E0
ENDCHAR
STARTCHAR Acircumflex
ENCODING 194
SWIDTH 765 0
DWIDTH 11 0
BBX 11 13 0 0
BITMAP
0180
0640
0000
0100
0300
0580
0580
0980
1180
1FC0
20C0
40C0
E1E0
ENDCHAR
STARTCHAR Atilde
ENCODING 195
SWIDTH 765 0
DWIDTH 11 0
BBX 11 13 0 0
BITMAP
0340
0580
0000
0100
0300
0580
0580
0980
1180
1FC0
20C0
40C0
E1E0
ENDCHAR
STARTCHAR Adieresis
ENCODING 196
SWIDTH 765 0
DWIDTH 11 0
BBX 11 12 0 0
BITMAP
06C0
0000
0100
0300
0580
0580
0980
1180
1FC0
20C0
40C0
E1E0
ENDCHAR
STARTCHAR Aring
ENCODING 197
SWIDTH 765 0
DWIDTH 11 0
BBX 11 13 0 0
BITMAP
0180
0180
0000
0100
0300
0580
0580
0980
1180
1FC0
20C0
40C0
E1E0
ENDCHAR
STARTCHAR AE
ENCODING 198
SWIDTH 958 0
DWIDTH 13 0
BBX 15 10 0 0
BITMAP
00FE
01C2
02C0
04C8
04F8
0980
1F80
2180
418C
E7F8
ENDCHAR
STARTCHAR Ccedilla
ENCODING 199
SWIDTH 740 0
DWIDTH 10 0
BBX 10 13 1 -3
BITMAP
0FC0
38C0
60C0
6000
E000
C000
C000
E000
6100
3E00
1000
0800
3800
ENDCHAR
STARTCHAR Egrave
ENCODING 200
SWIDTH 630 0
DWIDTH 9 0
BBX 9 13 1 0
BITMAP
0C00
0200
0000
3F80
1880
1800
3200
3E00
3200
3000
6000
6100
FE00
ENDCHAR
STARTCHAR Eacute
ENCODING 201
SWIDTH 630 0
DWIDTH 9 0
BBX 9 13 1 0
BITMAP
0380
0600
0000
3F80
1880
1800
3200
3E00
3200
3000
6000
6100
FE00
ENDCHAR
STARTCHAR Ecircumflex
ENCODING 202
SWIDTH 630 0
DWIDTH 9 0
BBX 9 13 1 0
BITMAP
0600
1900
0000
3F80
1880
1800
3200
3E00
3200
3000
6000
6100
FE00
ENDCHAR
STARTCHAR Edieresis
ENCODING 203
SWIDTH 630 0
DWIDTH 9 0
BBX 9 12 1 0
BITMAP
0D80
0000
3F80
1880
1800
3200
3E00
3200
3000
6000
6100
FE00
ENDCHAR
STARTCHAR Igrave
ENCODING 204
SWIDTH 372 0
DWIDTH 5 0
BBX 6 13 1 0
BITMAP
30
08
00
3C
18
38
30
30
30
30
60
60
F0
ENDCHAR
STARTCHAR Iacute
ENCODING 205
SWIDTH 372 0
DWIDTH 5 0
BBX 7 13 1 0
BITMAP
0E
18
00
3C
18
38
30
30
30
30
60
60
F0
ENDCHAR
STARTCHAR Icircumflex
ENCODING 206
SWIDTH 372 0
DWIDTH 5 0
BBX 7 13 1 0
BITMAP
0C
32
00
3C
18
38
30
30
30
30
60
60
F0
ENDCHAR
STARTCHAR Idieresis
ENCODING 207
SWIDTH 372 0
DWIDTH 5 0
BBX 7 12 1 0
BITMAP
36
00
3C
18
38
30
30
30
30
60
60
F0
ENDCHAR
STARTCHAR Eth
ENCODING 208
SWIDTH 822 0
DWIDTH 11 0
BBX 11 10 1 0
BITMAP
3F80
18C0
3860
3060
7C60
3060
30C0
70C0
6380
FE00
ENDCHAR
STARTCHAR Ntilde
ENCODING 209
SWIDTH 797 0
DWIDTH 11 0
BBX 12 13 1 0
BITMAP
0340
0580
0000
3870
1820
1C60
2C40
2640
2640
2340
2380
4180
E080
ENDCHAR
STARTCHAR Ograve
ENCODING 210
SWIDTH 831 0
DWIDTH 12 0
BBX 11 13 2 0
BITMAP
0600
0100
0000
0F80
38C0
70C0
60E0
E0E0
C0C0
C0C0
C180
6300
3C00
ENDCHAR
STARTCHAR Oacute
ENCODING 211
SWIDTH 831 0
DWIDTH 12 0
BBX 11 13 2 0
BITMAP
0380
0600
0000
0F80
38C0
70C0
60E0
E0E0
C0C0
C0C0
C180
6300
3C00
ENDCHAR
STARTCHAR Ocircumflex
ENCODING 212
SWIDTH 831 0
DWIDTH 12 0
BBX 11 13 2 0
BITMAP
0300
0C80
0000
0F80
38C0
70C0
60E0
E0E0
C0C0
C0C0
C180
6300
3C00
ENDCHAR
STARTCHAR Otilde
ENCODING 213
SWIDTH 831 0
DWIDTH 12 0
BBX 11 13 2 0
BITMAP
0680
0B00
0000
0F80
38C0
70C0
60E0
E0E0
C0C0
C0C0
C180
6300
3C00
ENDCHAR
STARTCHAR Odieresis
ENCODING 214
SWIDTH 831 0
DWIDTH 12 0
BBX 11 12 2 0
BITMAP
0D80
0000
0F80
38C0
70C0
60E0
E0E0
C0C0
C0C0
C180
6300
3C00
ENDCHAR
STARTCHAR multiply
ENCODING 215
SWIDTH 636 0
DWIDTH 9 0
BBX 9 8 1 0
BITMAP
6080
2100
1200
1C00
1C00
2400
4200
8300
ENDCHAR
STARTCHAR Oslash
ENCODING 216
SWIDTH 831 0
DWIDTH 12 0
BBX 13 10 1 0
BITMAP
07D8
1860
3060
31E0
6370
6460
6860
70C0
7180
DE00
ENDCHAR
STARTCHAR Ugrave
ENCODING 217
SWIDTH 775 0
DWIDTH 11 0
BBX 10 13 2 0
BITMAP
0C00
0200
0000
F9C0
6080
6080
6080
E100
C100
C100
C100
E200
7C00
ENDCHAR
STARTCHAR Uacute
ENCODING 218
SWIDTH 775 0
DWIDTH 11 0
BBX 10 13 2 0
BITMAP
0700
0C00
0000
F9C0
6080
6080
6080
E100
C100
C100
C100
E200
7C00
ENDCHAR
STARTCHAR Ucircumflex
ENCODING 219
SWIDTH 775 0
DWIDTH 11 0
BBX 10 13 2 0
BITMAP
0600
1900
0000
F9C0
6080
6080
6080
E100
C100
C100
C100
E200
7C00
ENDCHAR
STARTCHAR Udieresis
ENCODING 220
SWIDTH 775 0
DWIDTH 11 0
BBX 10 12 2 0
BITMAP
1B00
0000
F9C0
6080
6080
6080
E100
C100
C100
C100
E200
7C00
ENDCHAR
STARTCHAR Yacute
ENCODING 221
SWIDTH 669 0
DWIDTH 9 0
BBX 10 13 2 0
BITMAP
0700
0C00
0000
F1C0
6080
7100
3200
3C00
1800
1800
3000
3000
7800
ENDCHAR
STARTCHAR Thorn
ENCODING 222
SWIDTH 628 0
DWIDTH 9 0
BBX 9 10 1 0
BITMAP
3C00
1800
1F00
3180
3180
3180
3300
3E00
6000
F000
ENDCHAR
STARTCHAR germandbls
ENCODING 223
SWIDTH 656 0
DWIDTH 9 0
BBX 8 14 1 -3
BITMAP
1E
13
32
34
34
3C
66
67
63
6B
7E
C0
C0
C0
ENDCHAR
STARTCHAR agrave
ENCODING 224
SWIDTH 634 0
DWIDTH 9 0
BBX 8 10 1 0
BITMAP
0C
02
00
1F
23
62
C6
CE
D6
E7
ENDCHAR
STARTCHAR aacute
ENCODING 225
SWIDTH 634 0
DWIDTH 9 0
BBX 8 10 1 0
BITMAP
07
0C
00
1F
23
62
C6
CE
D6
E7
ENDCHAR
STARTCHAR acircumflex
ENCODING 226
SWIDTH 634 0
DWIDTH 9 0
BBX 8 10 1 0
BITMAP
06
19
00
1F
23
62
C6
CE
D6
E7
ENDCHAR
STARTCHAR atilde
ENCODING 227
SWIDTH 634 0
DWIDTH 9 0
BBX 8 10 1 0
BITMAP
0D
16
00
1F
23
62
C6
CE
D6
E7
ENDCHAR
STARTCHAR adieresis
ENCODING 228
SWIDTH 634 0
DWIDTH 9 0
BBX 8 9 1 0
BITMAP
1B
00
1F
23
62
C6
CE
D6
E7
ENDCHAR
STARTCHAR aring
ENCODING 229
SWIDTH 634 0
DWIDTH 9 0
BBX 8 10 1 0
BITMAP
06
06
00
1F
23
62
C6
CE
D6
E7
ENDCHAR
STARTCHAR ae
ENCODING 230
SWIDTH 905 0
DWIDTH 13 0
BBX 12 7 1 0
BITMAP
1FF0
2330
6330
C7C0
CE00
D310
E3E0
ENDCHAR
STARTCHAR ccedilla
ENCODING 231
SWIDTH 524 0
DWIDTH 7 0
BBX 7 10 1 -3
BITMAP
1E
22
62
C0
C0
C4
78
20
10
70
ENDCHAR
STARTCHAR egrave
ENCODING 232
SWIDTH 548 0
DWIDTH 8 0
BBX 7 10 1 0
BITMAP
18
04
00
1C
66
4C
F8
C0
C6
7C
ENDCHAR
STARTCHAR eacute
ENCODING 233
SWIDTH 548 0
DWIDTH 8 0
BBX 7 10 1 0
BITMAP
0E
18
00
1C
66
4C
F8
C0
C6
7C
ENDCHAR
STARTCHAR ecircumflex
ENCODING 234
SWIDTH 548 0
DWIDTH 8 0
BBX 7 10 1 0
BITMAP
0C
32
00
1C
66
4C
F8
C0
C6
7C
ENDCHAR
STARTCHAR edieresis
ENCODING 235
SWIDTH 548 0
DWIDTH 8 0
BBX 7 9 1 0
BITMAP
36
00
1C
66
4C
F8
C0
C6
7C
ENDCHAR
STARTCHAR igrave
ENCODING 236
SWIDTH 319 0
DWIDTH 4 0
BBX 5 10 1 0
BITMAP
30
08
00
F0
70
60
60
60
E0
F0
ENDCHAR
STARTCHAR iacute
ENCODING 237
SWIDTH 319 0
DWIDTH 4 0
BBX 6 10 1 0
BITMAP
1C
30
00
F0
70
60
60
60
E0
F0
ENDCHAR
STARTCHAR icircumflex
ENCODING 238
SWIDTH 319 0
DWIDTH 4 0
BBX 6 10 1 0
BITMAP
18
64
00
F0
70
60
60
60
E0
F0
ENDCHAR
STARTCHAR idieresis
ENCODING 239
SWIDTH 319 0
DWIDTH 4 0
BBX 6 9 1 0
BITMAP
6C
00
F0
70
60
60
60
E0
F0
ENDCHAR
STARTCHAR eth
ENCODING 240
SWIDTH 617 0
DWIDTH 9 0
BBX 8 11 1 0
BITMAP
02
3C
0E
16
1F
27
63
C2
C6
E4
78
ENDCHAR
STARTCHAR ntilde
ENCODING 241
SWIDTH 656 0
DWIDTH 9 0
BBX 8 10 1 0
BITMAP
0D
16
00
F7
6B
73
67
66
C6
C7
ENDCHAR
STARTCHAR ograve
ENCODING 242
SWIDTH 599 0
DWIDTH 8 0
BBX 8 10 1 0
BITMAP
18
04
00
1E
23
63
C3
C6
CC
78
ENDCHAR
STARTCHAR oacute
ENCODING 243
SWIDTH 599 0
DWIDTH 8 0
BBX 8 10 1 0
BITMAP
07
0C
00
1E
23
63
C3
C6
CC
78
ENDCHAR
STARTCHAR ocircumflex
ENCODING 244
SWIDTH 599 0
DWIDTH 8 0
BBX 8 10 1 0
BITMAP
06
19
00
1E
23
63
C3
C6
CC
78
ENDCHAR
STARTCHAR otilde
ENCODING 245
SWIDTH 599 0
DWIDTH 8 0
BBX 8 10 1 0
BITMAP
0D
16
00
1E
23
63
C3
C6
CC
78
ENDCHAR
STARTCHAR odieresis
ENCODING 246
SWIDTH 599 0
DWIDTH 8 0
BBX 8 9 1 0
BITMAP
1B
00
1E
23
63
C3
C6
CC
78
ENDCHAR
STARTCHAR divide
ENCODING 247
SWIDTH 636 0
DWIDTH 9 0
BBX 8 7 1 0
BITMAP
08
00
00
FF
00
00
10
ENDCHAR
STARTCHAR oslash
ENCODING 248
SWIDTH 599 0
DWIDTH 8 0
BBX 9 7 1 0
BITMAP
0E80
3300
6700
6B00
7300
6600
F800
ENDCHAR
STARTCHAR ugrave
ENCODING 249
SWIDTH 655 0
DWIDTH 9 0
BBX 8 10 1 0
BITMAP
0C
02
00
E7
63
66
E6
CE
D6
EF
ENDCHAR
STARTCHAR uacute
ENCODING 250
SWIDTH 655 0
DWIDTH 9 0
BBX 8 10 1 0
BITMAP
07
0C
00
E7
63
66
E6
CE
D6
EF
ENDCHAR
STARTCHAR ucircumflex
ENCODING 251
SWIDTH 655 0
DWIDTH 9 0
BBX 8 10 1 0
BITMAP
06
19
00
E7
63
66
E6
CE
D6
EF
ENDCHAR
STARTCHAR udieresis
ENCODING 252
SWIDTH 655 0
DWIDTH 9 0
BBX 8 9 1 0
BITMAP
1B
00
E7
63
66
E6
CE
D6
EF
ENDCHAR
STARTCHAR yacute
ENCODING 253
SWIDTH 586 0
DWIDTH 8 0
BBX 10 13 0 -3
BITMAP
0380
0600
0000
79C0
38C0
1880
1900
1A00
0C00
0C00
0800
1000
E000
ENDCHAR
STARTCHAR thorn
ENCODING 254
SWIDTH 639 0
DWIDTH 9 0
BBX 9 13 1 -3
BITMAP
7800
3000
3000
3780
3D80
7980
7180
6300
6200
7C00
E000
C000
C000
ENDCHAR
STARTCHAR ydieresis
ENCODING 255
SWIDTH 586 0
DWIDTH 8 0
BBX 10 12 0 -3
BITMAP
0D80
0000
79C0
38C0
1880
1900
1A00
0C00
0C00
0800
1000
E000
ENDCHAR
STARTCHAR Amacron
ENCODING 256
SWIDTH 765 0
DWIDTH 11 0
BBX 11 12 0 0
BITMAP
0780
0000
0100
0300
0580
0580
0980
1180
1FC0
20C0
40C0
E1E0
ENDCHAR
STARTCHAR amacron
ENCODING 257
SWIDTH 634 0
DWIDTH 9 0
BBX 8 9 1 0
BITMAP
1E
00
1F
23
62
C6
CE
D6
E7
ENDCHAR
STARTCHAR Abreve
ENCODING 258
SWIDTH 765 0
DWIDTH 11 0
BBX 11 13 0 0
BITMAP
0880
0700
0000
0100
0300
0580
0580
0980
1180
1FC0
20C0
40C0
E1E0
ENDCHAR
STARTCHAR abreve
ENCODING 259
SWIDTH 634 0
DWIDTH 9 0
BBX 8 10 1 0
BITMAP
11
0E
00
1F
23
62
C6
CE
D6
E7
ENDCHAR
STARTCHAR Aogonek
ENCODING 260
SWIDTH 765 0
DWIDTH 11 0
BBX 11 13 0 -3
BITMAP
0100
0300
0580
0580
0980
1180
1FC0
20C0
40C0
E1E0
0000
0400
0E00
ENDCHAR
STARTCHAR aogonek
ENCODING 261
SWIDTH 634 0
DWIDTH 9 0
BBX 8 10 1 -3
BITMAP
1F
23
62
C6
CE
D6
E7
00
10
38
ENDCHAR
STARTCHAR Cacute
ENCODING 262
SWIDTH 740 0
DWIDTH 10 0
BBX 10 13 1 0
BITMAP
0700
0C00
0000
0FC0
38C0
60C0
6000
E000
C000
C000
E000
6100
3E00
ENDCHAR
STARTCHAR cacute
ENCODING 263
SWIDTH 524 0
DWIDTH 7 0
BBX 7 10 1 0
BITMAP
0E
18
00
1E
22
62
C0
C0
C4
78
ENDCHAR
STARTCHAR Ccircumflex
ENCODING 264
SWIDTH 740 0
DWIDTH 10 0
BBX 10 13 1 0
BITMAP
0300
0C80
0000
0FC0
38C0
60C0
6000
E000
C000
C000
E000
6100
3E00
ENDCHAR
STARTCHAR ccircumflex
ENCODING 265
SWIDTH 524 0
DWIDTH 7 0
BBX 7 10 1 0
BITMAP
0C
32
00
1E
22
62
C0
C0
C4
78
ENDCHAR
STARTCHAR Cdotaccent
ENCODING 266
SWIDTH 740 0
DWIDTH 10 0
BBX 10 13 1 0
BITMAP
0600
0600
0000
0FC0
38C0
60C0
6000
E000
C000
C000
E000
6100
3E00
ENDCHAR
STARTCHAR cdotaccent
ENCODING 267
SWIDTH 524 0
DWIDTH 7 0
BBX 7 10 1 0
BITMAP
18
18
00
1E
22
62
C0
C0
C4
78
ENDCHAR
STARTCHAR Ccaron
ENCODING 268
SWIDTH 740 0
DWIDTH 10 0
BBX 10 13 1 0
BITMAP
0980
0600
0000
0FC0
38C0
60C0
6000
E000
C000
C000
E000
6100
3E00
ENDCHAR
STARTCHAR ccaron
ENCODING 269
SWIDTH 524 0
DWIDTH 7 0
BBX 7 10 1 0
BITMAP
26
18
00
1E
22
62
C0
C0
C4
78
ENDCHAR
STARTCHAR Dcaron
ENCODING 270
SWIDTH 822 0
DWIDTH 11 0
BBX 11 13 1 0
BITMAP
0980
0600
0000
3F80
18C0
1860
3060
3060
3060
30C0
30C0
6380
FE00
ENDCHAR
STARTCHAR dcaron
ENCODING 271
SWIDTH 867 0
DWIDTH 13 0
BBX 13 10 1 0
BITMAP
0398
01B8
0310
1F30
2300
6300
C700
CE00
DE00
F700
ENDCHAR
STARTCHAR Dcroat
ENCODING 272
SWIDTH 822 0
DWIDTH 11 0
BBX 11 10 1 0
BITMAP
3F80
18C0
3860
3060
7C60
3060
30C0
70C0
6380
FE00
ENDCHAR
STARTCHAR dcroat
ENCODING 273
SWIDTH 634 0
DWIDTH 9 0
BBX 9 10 1 0
BITMAP
0380
1F80
0300
1F00
2300
6300
C700
CE00
DE00
F700
ENDCHAR
STARTCHAR Emacron
ENCODING 274
SWIDTH 630 0
DWIDTH 9 0
BBX 9 12 1 0
BITMAP
1E00
0000
3F80
1880
1800
3200
3E00
3200
3000
6000
6100
FE00
ENDCHAR
STARTCHAR emacron
ENCODING 275
SWIDTH 548 0
DWIDTH 8 0
BBX 7 9 1 0
BITMAP
3C
00
1C
66
4C
F8
C0
C6
7C
ENDCHAR
STARTCHAR Ebreve
ENCODING 276
SWIDTH 630 0
DWIDTH 9 0
BBX 9 13 1 0
BITMAP
1100
0E00
0000
3F80
1880
1800
3200
3E00
3200
3000
6000
6100
FE00
ENDCHAR
STARTCHAR ebreve
ENCODING 277
SWIDTH 548 0
DWIDTH 8 0
BBX 7 10 1 0
BITMAP
44
38
00
1C
66
4C
F8
C0
C6
7C
ENDCHAR
STARTCHAR Edotaccent
ENCODING 278
SWIDTH 630 0
DWIDTH 9 0
BBX 9 13 1 0
BITMAP
0C00
0C00
0000
3F80
1880
1800
3200
3E00
3200
3000
6000
6100
FE00
ENDCHAR
STARTCHAR edotaccent
ENCODING 279
SWIDTH 548 0
DWIDTH 8 0
BBX 7 10 1 0
BITMAP
18
18
00
1C
66
4C
F8
C0
C6
7C
ENDCHAR
STARTCHAR Eogonek
ENCODING 280
SWIDTH 630 0
DWIDTH 9 0
BBX 9 13 1 -3
BITMAP
3F80
1880
1800
3200
3E00
3200
3000
6000
6100
FE00
0000
1000
3800
ENDCHAR
STARTCHAR eogonek
ENCODING 281
SWIDTH 548 0
DWIDTH 8 0
BBX 7 10 1 -3
BITMAP
1C
66
4C
F8
C0
C6
7C
00
10
38
ENDCHAR
STARTCHAR Ecaron
ENCODING 282
SWIDTH 630 0
DWIDTH 9 0
BBX 9 13 1 0
BITMAP
1300
0C00
0000
3F80
1880
1800
3200
3E00
3200
3000
6000
6100
FE00
ENDCHAR
STARTCHAR ecaron
ENCODING 283
SWIDTH 548 0
DWIDTH 8 0
BBX 7 10 1 0
BITMAP
26
18
00
1C
66
4C
F8
C0
C6
7C
ENDCHAR
STARTCHAR Gcircumflex
ENCODING 284
SWIDTH 780 0
DWIDTH 11 0
BBX 10 13 1 0
BITMAP
0600
1900
0000
0FC0
38C0
7040
6000
E000
C7C0
C180
C380
6300
3F00
ENDCHAR
STARTCHAR gcircumflex
ENCODING 285
SWIDTH 628 0
DWIDTH 9 0
BBX 9 13 0 -3
BITMAP
0600
1900
0000
0F80
3180
2300
6300
E700
6B00
7700
8600
C600
F800
ENDCHAR
STARTCHAR Gbreve
ENCODING 286
SWIDTH 780 0
DWIDTH 11 0
BBX 10 13 1 0
BITMAP
1100
0E00
0000
0FC0
38C0
7040
6000
E000
C7C0
C180
C380
6300
3F00
ENDCHAR
STARTCHAR gbreve
ENCODING 287
SWIDTH 628 0
DWIDTH 9 0
BBX 9 13 0 -3
BITMAP
1100
0E00
0000
0F80
3180
2300
6300
E700
6B00
7700
8600
C600
F800
ENDCHAR
STARTCHAR Gdotaccent
ENCODING 288
SWIDTH 780 0
DWIDTH 11 0
BBX 10 13 1 0
BITMAP
0600
0600
0000
0FC0
38C0
7040
6000
E000
C7C0
C180
C380
6300
3F00
ENDCHAR
STARTCHAR gdotaccent
ENCODING 289
SWIDTH 628 0
DWIDTH 9 0
BBX 9 13 0 -3
BITMAP
0C00
0C00
0000
0F80
3180
2300
6300
E700
6B00
7700
8600
C600
F800
ENDCHAR
STARTCHAR Gcommaaccent
ENCODING 290
SWIDTH 780 0
DWIDTH 11 0
BBX 10 16 1 -6
BITMAP
0FC0
38C0
7040
6000
E000
C7C0
C180
C380
6300
3F00
0000
0C00
0C00
1C00
0800
1800
ENDCHAR
STARTCHAR gcommaaccent
ENCODING 291
SWIDTH 628 0
DWIDTH 9 0
BBX 9 15 0 -3
BITMAP
0600
0400
0E00
0C00
0000
0F80
3180
2300
6300
E700
6B00
7700
8600
C600
F800
ENDCHAR
STARTCHAR Hcircumflex
ENCODING 292
SWIDTH 827 0
DWIDTH 12 0
BBX 13 13 0 0
BITMAP
0180
0640
0000
3EF8
1870
1860
1860
3FE0
3060
30C0
30C0
70C0
FBE0
ENDCHAR
STARTCHAR hcircumflex
ENCODING 293
SWIDTH 656 0
DWIDTH 9 0
BBX 8 13 1 0
BITMAP
18
64
00
70
30
30
67
6B
73
67
66
C6
C7
ENDCHAR
STARTCHAR Hbar
ENCODING 294
SWIDTH 827 0
DWIDTH 12 0
BBX 13 10 0 0
BITMAP
3EF8
1870
FFF8
1860
3FE0
3060
30C0
30C0
70C0
FBE0
ENDCHAR
STARTCHAR hbar
ENCODING 295
SWIDTH 656 0
DWIDTH 9 0
BBX 9 10 0 0
BITMAP
3800
FC00
1800
3380
3580
3980
3380
3300
6300
6380
ENDCHAR
STARTCHAR Itilde
ENCODING 296
SWIDTH 372 0
DWIDTH 5 0
BBX 6 13 1 0
BITMAP
34
58
00
3C
18
38
30
30
30
30
60
60
F0
ENDCHAR
STARTCHAR itilde
ENCODING 297
SWIDTH 319 0
DWIDTH 4 0
BBX 5 10 1 0
BITMAP
68
B0
00
F0
70
60
60
60
E0
F0
ENDCHAR
STARTCHAR Imacron
ENCODING 298
SWIDTH 372 0
DWIDTH 5 0
BBX 6 12 1 0
BITMAP
3C
00
3C
18
38
30
30
30
30
60
60
F0
ENDCHAR
STARTCHAR imacron
ENCODING 299
SWIDTH 319 0
DWIDTH 4 0
BBX 4 9 1 0
BITMAP
F0
00
F0
70
60
60
60
E0
F0
ENDCHAR
STARTCHAR Ibreve
ENCODING 300
SWIDTH 372 0
DWIDTH 5 0
BBX 6 13 1 0
BITMAP
44
38
00
3C
18
38
30
30
30
30
60
60
F0
ENDCHAR
STARTCHAR ibreve
ENCODING 301
SWIDTH 319 0
DWIDTH 4 0
BBX 5 10 1 0
BITMAP
88
70
00
F0
70
60
60
60
E0
F0
ENDCHAR
STARTCHAR Iogonek
ENCODING 302
SWIDTH 372 0
DWIDTH 5 0
BBX 6 13 1 -3
BITMAP
3C
18
38
30
30
30
30
60
60
F0
00
20
70
ENDCHAR
STARTCHAR iogonek
ENCODING 303
SWIDTH 319 0
DWIDTH 4 0
BBX 4 13 1 -3
BITMAP
30
30
00
E0
60
60
60
E0
C0
E0
00
40
E0
ENDCHAR
STARTCHAR Idotaccent
ENCODING 304
SWIDTH 372 0
DWIDTH 5 0
BBX 6 13 1 0
BITMAP
18
18
00
3C
18
38
30
30
30
30
60
60
F0
ENDCHAR
STARTCHAR dotlessi
ENCODING 305
SWIDTH 319 0
DWIDTH 4 0
BBX 4 7 1 0
BITMAP
F0
70
60
60
60
E0
F0
ENDCHAR
STARTCHAR IJ
ENCODING 306
SWIDTH 831 0
DWIDTH 12 0
BBX 13 13 1 -3
BITMAP
3CF8
1870
3860
3060
3060
3060
30E0
60C0
60C0
F0C0
0DC0
0980
0F00
ENDCHAR
STARTCHAR ij
ENCODING 307
SWIDTH 684 0
DWIDTH 9 0
BBX 11 13 1 -3
BITMAP
3060
3060
0000
E1C0
60C0
60C0
61C0
E180
C180
E180
1300
1300
1E00
ENDCHAR
STARTCHAR Jcircumflex
ENCODING 308
SWIDTH 478 0
DWIDTH 7 0
BBX 9 16 0 -3
BITMAP
0600
1900
0000
0F80
0700
0600
0600
0600
0600
0E00
0C00
0C00
0C00
DC00
9800
F000
ENDCHAR
STARTCHAR jcircumflex
ENCODING 309
SWIDTH 381 0
DWIDTH 5 0
BBX 8 13 0 -3
BITMAP
06
19
00
0E
06
06
0E
0C
0C
0C
98
98
F0
ENDCHAR
STARTCHAR Kcommaaccent
ENCODING 310
SWIDTH 746 0
DWIDTH 10 0
BBX 11 16 0 -6
BITMAP
3CE0
18C0
1900
3A00
3C00
3E00
3700
3300
6180
F3C0
0000
0C00
0C00
1C00
0800
1800
ENDCHAR
STARTCHAR kcommaaccent
ENCODING 311
SWIDTH 626 0
DWIDTH 9 0
BBX 8 16 1 -6
BITMAP
70
30
30
73
66
6C
78
6C
CE
C7
00
18
18
38
10
30
ENDCHAR
STARTCHAR kgreenlandic
ENCODING 312
SWIDTH 626 0
DWIDTH 9 0
BBX 8 7 1 0
BITMAP
73
66
6C
78
6C
CE
C7
ENDCHAR
STARTCHAR Lacute
ENCODING 313
SWIDTH 611 0
DWIDTH 9 0
BBX 8 13 1 0
BITMAP
0E
18
00
3C
18
18
30
30
30
30
31
61
FF
ENDCHAR
STARTCHAR lacute
ENCODING 314
SWIDTH 319 0
DWIDTH 4 0
BBX 5 13 1 0
BITMAP
38
60
00
70
30
70
60
60
60
60
E0
C0
E0
ENDCHAR
STARTCHAR Lcommaaccent
ENCODING 315
SWIDTH 611 0
DWIDTH 9 0
BBX 8 16 1 -6
BITMAP
3C
18
18
30
30
30
30
31
61
FF
00
18
18
38
10
30
ENDCHAR
STARTCHAR lcommaaccent
ENCODING 316
SWIDTH 319 0
DWIDTH 4 0
BBX 4 16 1 -6
BITMAP
70
30
70
60
60
60
60
E0
C0
E0
00
60
60
E0
40
C0
ENDCHAR
STARTCHAR Lcaron
ENCODING 317
SWIDTH 845 0
DWIDTH 13 0
BBX 13 10 1 0
BITMAP
3C18
1838
1810
3030
3000
3000
3000
3100
6100
FF00
ENDCHAR
STARTCHAR lcaron
ENCODING 318
SWIDTH 568 0
DWIDTH 8 0
BBX 8 10 1 0
BITMAP
73
37
72
66
60
60
60
E0
C0
E0
ENDCHAR
STARTCHAR Ldot
ENCODING 319
SWIDTH 1216 0
DWIDTH 18 0
BBX 14 10 1 0
BITMAP
3C00
1800
1800
3000
3000
300C
300C
3100
6100
FF00
ENDCHAR
STARTCHAR ldot
ENCODING 320
SWIDTH 939 0
DWIDTH 13 0
BBX 9 10 1 0
BITMAP
7000
3000
7000
6000
6000
6180
6180
E000
C000
E000
ENDCHAR
STARTCHAR Lslash
ENCODING 321
SWIDTH 611 0
DWIDTH 9 0
BBX 8 10 1 0
BITMAP
3C
18
18
30
7C
B0
30
31
61
FF
ENDCHAR
STARTCHAR lslash
ENCODING 322
SWIDTH 319 0
DWIDTH 4 0
BBX 5 10 1 0
BITMAP
70
30
30
30
38
E0
60
60
60
F0
ENDCHAR
STARTCHAR Nacute
ENCODING 323
SWIDTH 797 0
DWIDTH 11 0
BBX 12 13 1 0
BITMAP
0380
0600
0000
3870
1820
1C60
2C40
2640
2640
2340
2380
4180
E080
ENDCHAR
STARTCHAR nacute
ENCODING 324
SWIDTH 656 0
DWIDTH 9 0
BBX 8 10 1 0
BITMAP
0E
18
00
F7
6B
73
67
66
C6
C7
ENDCHAR
STARTCHAR Ncommaaccent
ENCODING 325
SWIDTH 797 0
DWIDTH 11 0
BBX 12 16 1 -6
BITMAP
3870
1820
1C60
2C40
2640
2640
2340
2380
4180
E080
0000
0600
0600
0E00
0400
0C00
ENDCHAR
STARTCHAR ncommaaccent
ENCODING 326
SWIDTH 656 0
DWIDTH 9 0
BBX 8 13 1 -6
BITMAP
F7
6B
73
67
66
C6
C7
00
18
18
38
10
30
ENDCHAR
STARTCHAR Ncaron
ENCODING 327
SWIDTH 797 0
DWIDTH 11 0
BBX 12 13 1 0
BITMAP
0980
0600
0000
3870
1820
1C60
2C40
2640
2640
2340
2380
4180
E080
ENDCHAR
STARTCHAR ncaron
ENCODING 328
SWIDTH 656 0
DWIDTH 9 0
BBX 8 10 1 0
BITMAP
26
18
00
F7
6B
73
67
66
C6
C7
ENDCHAR
STARTCHAR napostrophe
ENCODING 329
SWIDTH 908 0
DWIDTH 13 0
BBX 11 10 2 0
BITMAP
6000
E000
4000
DEE0
0D60
0E60
0CE0
0CC0
18C0
18E0
ENDCHAR
STARTCHAR Eng
ENCODING 330
SWIDTH 797 0
DWIDTH 11 0
BBX 12 13 1 -3
BITMAP
3870
1820
1C60
2C40
2640
2640
2340
2380
4180
E180
1300
1300
1E00
ENDCHAR
STARTCHAR eng
ENCODING 331
SWIDTH 656 0
DWIDTH 9 0
BBX 8 10 1 -3
BITMAP
F7
6B
73
67
66
C6
C6
4C
4C
78
ENDCHAR
STARTCHAR Omacron
ENCODING 332
SWIDTH 831 0
DWIDTH 12 0
BBX 11 12 2 0
BITMAP
0F00
0000
0F80
38C0
70C0
60E0
E0E0
C0C0
C0C0
C180
6300
3C00
ENDCHAR
STARTCHAR omacron
ENCODING 333
SWIDTH 599 0
DWIDTH 8 0
BBX 8 9 1 0
BITMAP
1E
00
1E
23
63
C3
C6
CC
78
ENDCHAR
STARTCHAR Obreve
ENCODING 334
SWIDTH 831 0
DWIDTH 12 0
BBX 11 13 2 0
BITMAP
1100
0E00
0000
0F80
38C0
70C0
60E0
E0E0
C0C0
C0C0
C180
6300
3C00
ENDCHAR
STARTCHAR obreve
ENCODING 335
SWIDTH 599 0
DWIDTH 8 0
BBX 8 10 1 0
BITMAP
22
1C
00
1E
23
63
C3
C6
CC
78
ENDCHAR
STARTCHAR Ohungarumlaut
ENCODING 336
SWIDTH 831 0
DWIDTH 12 0
BBX 11 13 2 0
BITMAP
0780
0A00
0000
0F80
38C0
70C0
60E0
E0E0
C0C0
C0C0
C180
6300
3C00
ENDCHAR
STARTCHAR ohungarumlaut
ENCODING 337
SWIDTH 599 0
DWIDTH 8 0
BBX 8 10 1 0
BITMAP
0F
14
00
1E
23
63
C3
C6
CC
78
ENDCHAR
STARTCHAR OE
ENCODING 338
SWIDTH 1067 0
DWIDTH 15 0
BBX 15 10 1 0
BITMAP
0FFE
38C2
60C0
60CC
E1F8
C188
C180
C180
638C
3FF8
ENDCHAR
STARTCHAR oe
ENCODING 339
SWIDTH 921 0
DWIDTH 13 0
BBX 12 7 1 0
BITMAP
1EF0
6330
6330
C3C0
C600
C710
7BE0
ENDCHAR
STARTCHAR Racute
ENCODING 340
SWIDTH 711 0
DWIDTH 10 0
BBX 10 13 0 0
BITMAP
0380
0600
0000
3FC0
18C0
18C0
1980
3F00
3600
3300
3300
7180
F1C0
ENDCHAR
STARTCHAR racute
ENCODING 341
SWIDTH 496 0
DWIDTH 7 0
BBX 7 10 1 0
BITMAP
1C
30
00
E6
6C
70
60
60
C0
C0
ENDCHAR
STARTCHAR Rcommaaccent
ENCODING 342
SWIDTH 711 0
DWIDTH 10 0
BBX 10 16 0 -6
BITMAP
3FC0
18C0
18C0
1980
3F00
3600
3300
3300
7180
F1C0
0000
0C00
0C00
1C00
0800
1800
ENDCHAR
STARTCHAR rcommaaccent
ENCODING 343
SWIDTH 496 0
DWIDTH 7 0
BBX 7 13 1 -6
BITMAP
E6
6C
70
60
60
C0
C0
00
60
60
E0
40
C0
ENDCHAR
STARTCHAR Rcaron
ENCODING 344
SWIDTH 711 0
DWIDTH 10 0
BBX 10 13 0 0
BITMAP
0980
0600
0000
3FC0
18C0
18C0
1980
3F00
3600
3300
3300
7180
F1C0
ENDCHAR
STARTCHAR rcaron
ENCODING 345
SWIDTH 496 0
DWIDTH 7 0
BBX 7 10 1 0
BITMAP
4C
30
00
E6
6C
70
60
60
C0
C0
ENDCHAR
STARTCHAR Sacute
ENCODING 346
SWIDTH 587 0
DWIDTH 8 0
BBX 8 13 1 0
BITMAP
0E
18
00
1F
31
71
30
38
1E
06
86
8E
F8
ENDCHAR
STARTCHAR sacute
ENCODING 347
SWIDTH 479 0
DWIDTH 7 0
BBX 7 10 1 0
BITMAP
0E
18
00
3E
64
70
38
9C
8C
F8
ENDCHAR
STARTCHAR Scircumflex
ENCODING 348
SWIDTH 587 0
DWIDTH 8 0
BBX 8 13 1 0
BITMAP
0C
32
00
1F
31
71
30
38
1E
06
86
8E
F8
ENDCHAR
STARTCHAR scircumflex
ENCODING 349
SWIDTH 479 0
DWIDTH 7 0
BBX 7 10 1 0
BITMAP
0C
32
00
3E
64
70
38
9C
8C
F8
ENDCHAR
STARTCHAR Scedilla
ENCODING 350
SWIDTH 587 0
DWIDTH 8 0
BBX 8 13 1 -3
BITMAP
1F
31
71
30
38
1E
06
86
8E
F8
18
08
38
ENDCHAR
STARTCHAR scedilla
ENCODING 351
SWIDTH 479 0
DWIDTH 7 0
BBX 7 10 1 -3
BITMAP
3E
64
70
38
9C
8C
F8
30
10
70
ENDCHAR
STARTCHAR Scaron
ENCODING 352
SWIDTH 587 0
DWIDTH 8 0
BBX 8 13 1 0
BITMAP
13
0C
00
1F
31
71
30
38
1E
06
86
8E
F8
ENDCHAR
STARTCHAR scaron
ENCODING 353
SWIDTH 479 0
DWIDTH 7 0
BBX 8 10 1 0
BITMAP
13
0C
00
3E
64
70
38
9C
8C
F8
ENDCHAR
STARTCHAR Tcommaaccent
ENCODING 354
SWIDTH 716 0
DWIDTH 10 0
BBX 10 13 2 -3
BITMAP
FFC0
8C40
0C00
1C00
1800
1800
1800
1800
3800
7C00
1800
0800
3800
ENDCHAR
STARTCHAR tcommaaccent
ENCODING 355
SWIDTH 375 0
DWIDTH 5 0
BBX 5 12 1 -3
BITMAP
70
60
F8
60
60
60
C0
C0
70
60
20
E0
ENDCHAR
STARTCHAR Tcaron
ENCODING 356
SWIDTH 716 0
DWIDTH 10 0
BBX 10 13 2 0
BITMAP
1300
0C00
0000
FFC0
8C40
0C00
1C00
1800
1800
1800
1800
3800
7C00
ENDCHAR
STARTCHAR tcaron
ENCODING 357
SWIDTH 621 0
DWIDTH 9 0
BBX 9 10 1 0
BITMAP
0180
7380
6100
FB00
6000
6000
6000
C000
C000
7000
ENDCHAR
STARTCHAR Tbar
ENCODING 358
SWIDTH 716 0
DWIDTH 10 0
BBX 10 10 2 0
BITMAP
FFC0
8C40
0C00
1C00
3F00
1800
1800
1800
3800
7C00
ENDCHAR
STARTCHAR tbar
ENCODING 359
SWIDTH 375 0
DWIDTH 5 0
BBX 6 9 1 0
BITMAP
70
60
F8
60
60
FC
C0
C0
70
ENDCHAR
STARTCHAR Utilde
ENCODING 360
SWIDTH 775 0
DWIDTH 11 0
BBX 10 13 2 0
BITMAP
1A00
2C00
0000
F9C0
6080
6080
6080
E100
C100
C100
C100
E200
7C00
ENDCHAR
STARTCHAR utilde
ENCODING 361
SWIDTH 655 0
DWIDTH 9 0
BBX 8 10 1 0
BITMAP
1A
2C
00
E7
63
66
E6
CE
D6
EF
ENDCHAR
STARTCHAR Umacron
ENCODING 362
SWIDTH 775 0
DWIDTH 11 0
BBX 10 12 2 0
BITMAP
1E00
0000
F9C0
6080
6080
6080
E100
C100
C100
C100
E200
7C00
ENDCHAR
STARTCHAR umacron
ENCODING 363
SWIDTH 655 0
DWIDTH 9 0
BBX 8 9 1 0
BITMAP
3C
00
E7
63
66
E6
CE
D6
EF
ENDCHAR
STARTCHAR Ubreve
ENCODING 364
SWIDTH 775 0
DWIDTH 11 0
BBX 10 13 2 0
BITMAP
2200
1C00
0000
F9C0
6080
6080
6080
E100
C100
C100
C100
E200
7C00
ENDCHAR
STARTCHAR ubreve
ENCODING 365
SWIDTH 655 0
DWIDTH 9 0
BBX 8 10 1 0
BITMAP
22
1C
00
E7
63
66
E6
CE
D6
EF
ENDCHAR
STARTCHAR Uring
ENCODING 366
SWIDTH 775 0
DWIDTH 11 0
BBX 10 13 2 0
BITMAP
0C00
0C00
0000
F9C0
6080
6080
6080
E100
C100
C100
C100
E200
7C00
ENDCHAR
STARTCHAR uring
ENCODING 367
SWIDTH 655 0
DWIDTH 9 0
BBX 8 10 1 0
BITMAP
18
18
00
E7
63
66
E6
CE
D6
EF
ENDCHAR
STARTCHAR Uhungarumlaut
ENCODING 368
SWIDTH 775 0
DWIDTH 11 0
BBX 10 13 2 0
BITMAP
0F00
1400
0000
F9C0
6080
6080
6080
E100
C100
C100
C100
E200
7C00
ENDCHAR
STARTCHAR uhungarumlaut
ENCODING 369
SWIDTH 655 0
DWIDTH 9 0
BBX 8 10 1 0
BITMAP
1E
28
00
E7
63
66
E6
CE
D6
EF
ENDCHAR
STARTCHAR Uogonek
ENCODING 370
SWIDTH 775 0
DWIDTH 11 0
BBX 10 13 2 -3
BITMAP
F9C0
6080
6080
6080
E100
C100
C100
C100
E200
7C00
0000
1000
3800
ENDCHAR
STARTCHAR uogonek
ENCODING 371
SWIDTH 655 0
DWIDTH 9 0
BBX 8 10 1 -3
BITMAP
E7
63
66
E6
CE
D6
EF
00
10
38
ENDCHAR
STARTCHAR Wcircumflex
ENCODING 372
SWIDTH 922 0
DWIDTH 13 0
BBX 13 13 2 0
BITMAP
0300
0C80
0000
F238
6310
6720
6720
6B40
6B40
7380
7380
6300
6300
ENDCHAR
STARTCHAR wcircumflex
ENCODING 373
SWIDTH 822 0
DWIDTH 12 0
BBX 11 10 1 0
BITMAP
0600
1900
0000
E460
6660
6640
2E80
3380
3300
2200
ENDCHAR
STARTCHAR Ycircumflex
ENCODING 374
SWIDTH 669 0
DWIDTH 9 0
BBX 10 13 2 0
BITMAP
0C00
3200
0000
F1C0
6080
7100
3200
3C00
1800
1800
3000
3000
7800
ENDCHAR
STARTCHAR ycircumflex
ENCODING 375
SWIDTH 586 0
DWIDTH 8 0
BBX 10 13 0 -3
BITMAP
0600
1900
0000
79C0
38C0
1880
1900
1A00
0C00
0C00
0800
1000
E000
ENDCHAR
STARTCHAR Ydieresis
ENCODING 376
SWIDTH 669 0
DWIDTH 9 0
BBX 10 12 2 0
BITMAP
1B00
0000
F1C0
6080
7100
3200
3C00
1800
1800
3000
3000
7800
ENDCHAR
STARTCHAR Zacute
ENCODING 377
SWIDTH 684 0
DWIDTH 10 0
BBX 10 13 1 0
BITMAP
0700
0C00
0000
3FC0
2180
0300
0700
0E00
1C00
3800
3000
6180
FF00
ENDCHAR
STARTCHAR zacute
ENCODING 378
SWIDTH 567 0
DWIDTH 8 0
BBX 8 10 1 0
BITMAP
0E
18
00
3F
46
0C
18
30
62
FE
ENDCHAR
STARTCHAR Zdotaccent
ENCODING 379
SWIDTH 684 0
DWIDTH 10 0
BBX 10 13 1 0
BITMAP
0600
0600
0000
3FC0
2180
0300
0700
0E00
1C00
3800
3000
6180
FF00
ENDCHAR
STARTCHAR zdotaccent
ENCODING 380
SWIDTH 567 0
DWIDTH 8 0
BBX 8 10 1 0
BITMAP
0C
0C
00
3F
46
0C
18
30
62
FE
ENDCHAR
STARTCHAR Zcaron
ENCODING 381
SWIDTH 684 0
DWIDTH 10 0
BBX 10 13 1 0
BITMAP
0980
0600
0000
3FC0
2180
0300
0700
0E00
1C00
3800
3000
6180
FF00
ENDCHAR
STARTCHAR zcaron
ENCODING 382
SWIDTH 567 0
DWIDTH 8 0
BBX 8 10 1 0
BITMAP
13
0C
00
3F
46
0C
18
30
62
FE
ENDCHAR
STARTCHAR uni0186
ENCODING 390
SWIDTH 740 0
DWIDTH 10 0
BBX 10 10 1 0
BITMAP
1F00
2180
01C0
00C0
00C0
01C0
0180
C180
C700
FC00
ENDCHAR
STARTCHAR uni0189
ENCODING 393
SWIDTH 822 0
DWIDTH 11 0
BBX 11 10 1 0
BITMAP
3F80
18C0
3860
3060
7C60
3060
30C0
70C0
6380
FE00
ENDCHAR
STARTCHAR uni018E
ENCODING 398
SWIDTH 630 0
DWIDTH 9 0
BBX 9 10 1 0
BITMAP
3F80
4300
0300
0600
2600
3E00
2600
0C00
8C00
FE00
ENDCHAR
STARTCHAR florin
ENCODING 402
SWIDTH 636 0
DWIDTH 9 0
BBX 7 13 3 -3
BITMAP
0E
12
32
30
20
F8
60
60
60
60
C0
C0
C0
ENDCHAR
STARTCHAR uni0197
ENCODING 407
SWIDTH 372 0
DWIDTH 5 0
BBX 6 10 1 0
BITMAP
3C
18
38
30
FC
30
30
60
60
F0
ENDCHAR
STARTCHAR uni019A
ENCODING 410
SWIDTH 319 0
DWIDTH 4 0
BBX 6 10 0 0
BITMAP
38
18
38
30
FC
30
30
70
60
70
ENDCHAR
STARTCHAR uni019D
ENCODING 413
SWIDTH 797 0
DWIDTH 11 0
BBX 14 13 -1 -3
BITMAP
0E1C
0608
0718
0B10
0990
0990
08D0
0CE0
0C60
0C20
9800
9800
F000
ENDCHAR
STARTCHAR uni019F
ENCODING 415
SWIDTH 831 0
DWIDTH 12 0
BBX 11 10 2 0
BITMAP
0F80
38C0
70C0
60E0
FFE0
C0C0
C0C0
C180
6300
3C00
ENDCHAR
STARTCHAR Ohorn
ENCODING 416
SWIDTH 831 0
DWIDTH 12 0
BBX 13 10 2 0
BITMAP
0F98
38F8
70D0
60F0
E0E0
C0C0
C0C0
C180
6300
3C00
ENDCHAR
STARTCHAR ohorn
ENCODING 417
SWIDTH 599 0
DWIDTH 8 0
BBX 11 7 1 0
BITMAP
1E60
23E0
6340
C3C0
C600
CC00
7800
ENDCHAR
STARTCHAR Uhorn
ENCODING 431
SWIDTH 775 0
DWIDTH 11 0
BBX 12 10 2 0
BITMAP
F9F0
60F0
60A0
60E0
E100
C100
C100
C100
E200
7C00
ENDCHAR
STARTCHAR uhorn
ENCODING 432
SWIDTH 655 0
DWIDTH 9 0
BBX 11 7 1 0
BITMAP
E760
63E0
6640
E6C0
CE00
D600
EF00
ENDCHAR
STARTCHAR uni01B5
ENCODING 437
SWIDTH 684 0
DWIDTH 10 0
BBX 10 10 1 0
BITMAP
3FC0
2180
0300
0700
3F00
1C00
3800
3000
6180
FF00
ENDCHAR
STARTCHAR uni01B6
ENCODING 438
SWIDTH 567 0
DWIDTH 8 0
BBX 8 7 1 0
BITMAP
3F
46
0C
7E
30
62
FE
ENDCHAR
STARTCHAR uni01BB
ENCODING 443
SWIDTH 636 0
DWIDTH 9 0
BBX 8 10 1 0
BITMAP
1E
27
23
03
FF
18
20
40
FE
FC
ENDCHAR
STARTCHAR uni01BC
ENCODING 444
SWIDTH 636 0
DWIDTH 9 0
BBX 8 10 2 0
BITMAP
3F
20
20
78
0C
06
06
86
8C
F8
ENDCHAR
STARTCHAR uni01C0
ENCODING 448
SWIDTH 253 0
DWIDTH 4 0
BBX 4 13 1 -3
BITMAP
10
10
20
20
20
20
60
40
40
40
40
80
80
ENDCHAR
STARTCHAR uni01C2
ENCODING 450
SWIDTH 636 0
DWIDTH 9 0
BBX 9 13 1 -2
BITMAP
0200
0200
0400
0400
0400
FF80
0C00
0800
FF80
0800
0800
1000
1000
ENDCHAR
STARTCHAR uni01C3
ENCODING 451
SWIDTH 265 0
DWIDTH 4 0
BBX 4 10 1 0
BITMAP
30
30
20
60
60
60
40
00
C0
C0
ENDCHAR
STARTCHAR uni01CD
ENCODING 461
SWIDTH 765 0
DWIDTH 11 0
BBX 11 13 0 0
BITMAP
0980
0600
0000
0100
0300
0580
0580
0980
1180
1FC0
20C0
40C0
E1E0
ENDCHAR
STARTCHAR uni01CE
ENCODING 462
SWIDTH 634 0
DWIDTH 9 0
BBX 8 10 1 0
BITMAP
13
0C
00
1F
23
62
C6
CE
D6
E7
ENDCHAR
STARTCHAR uni01CF
ENCODING 463
SWIDTH 372 0
DWIDTH 5 0
BBX 6 13 1 0
BITMAP
4C
30
00
3C
18
38
30
30
30
30
60
60
F0
ENDCHAR
STARTCHAR uni01D0
ENCODING 464
SWIDTH 319 0
DWIDTH 4 0
BBX 5 10 1 0
BITMAP
98
60
00
F0
70
60
60
60
E0
F0
ENDCHAR
STARTCHAR uni01D1
ENCODING 465
SWIDTH 831 0
DWIDTH 12 0
BBX 11 13 2 0
BITMAP
0980
0600
0000
0F80
38C0
70C0
60E0
E0E0
C0C0
C0C0
C180
6300
3C00
ENDCHAR
STARTCHAR uni01D2
ENCODING 466
SWIDTH 599 0
DWIDTH 8 0
BBX 8 10 1 0
BITMAP
13
0C
00
1E
23
63
C3
C6
CC
78
ENDCHAR
STARTCHAR uni01D3
ENCODING 467
SWIDTH 775 0
DWIDTH 11 0
BBX 10 13 2 0
BITMAP
1300
0C00
0000
F9C0
6080
6080
6080
E100
C100
C100
C100
E200
7C00
ENDCHAR
STARTCHAR uni01D4
ENCODING 468
SWIDTH 655 0
DWIDTH 9 0
BBX 8 10 1 0
BITMAP
26
18
00
E7
63
66
E6
CE
D6
EF
ENDCHAR
STARTCHAR uni01D5
ENCODING 469
SWIDTH 775 0
DWIDTH 11 0
BBX 10 14 2 0
BITMAP
1E00
0000
1B00
0000
F9C0
6080
6080
6080
E100
C100
C100
C100
E200
7C00
ENDCHAR
STARTCHAR uni01D6
ENCODING 470
SWIDTH 655 0
DWIDTH 9 0
BBX 8 11 1 0
BITMAP
3C
00
1B
00
E7
63
66
E6
CE
D6
EF
ENDCHAR
STARTCHAR uni01D7
ENCODING 471
SWIDTH 775 0
DWIDTH 11 0
BBX 10 15 2 0
BITMAP
0700
0C00
0000
1B00
0000
F9C0
6080
6080
6080
E100
C100
C100
C100
E200
7C00
ENDCHAR
STARTCHAR uni01D8
ENCODING 472
SWIDTH 655 0
DWIDTH 9 0
BBX 8 12 1 0
BITMAP
0E
18
00
1B
00
E7
63
66
E6
CE
D6
EF
ENDCHAR
STARTCHAR uni01D9
ENCODING 473
SWIDTH 775 0
DWIDTH 11 0
BBX 10 15 2 0
BITMAP
1300
0C00
0000
1B00
0000
F9C0
6080
6080
6080
E100
C100
C100
C100
E200
7C00
ENDCHAR
STARTCHAR uni01DA
ENCODING 474
SWIDTH 655 0
DWIDTH 9 0
BBX 8 12 1 0
BITMAP
26
18
00
1B
00
E7
63
66
E6
CE
D6
EF
ENDCHAR
STARTCHAR uni01DB
ENCODING 475
SWIDTH 775 0
DWIDTH 11 0
BBX 10 15 2 0
BITMAP
1800
0400
0000
1B00
0000
F9C0
6080
6080
6080
E100
C100
C100
C100
E200
7C00
ENDCHAR
STARTCHAR uni01DC
ENCODING 476
SWIDTH 655 0
DWIDTH 9 0
BBX 8 12 1 0
BITMAP
30
08
00
1B
00
E7
63
66
E6
CE
D6
EF
ENDCHAR
STARTCHAR uni01DD
ENCODING 477
SWIDTH 548 0
DWIDTH 8 0
BBX 7 7 1 0
BITMAP
7C
C6
06
3E
64
CC
70
ENDCHAR
STARTCHAR uni01DE
ENCODING 478
SWIDTH 765 0
DWIDTH 11 0
BBX 11 14 0 0
BITMAP
0780
0000
06C0
0000
0100
0300
0580
0580
0980
1180
1FC0
20C0
40C0
E1E0
ENDCHAR
STARTCHAR uni01DF
ENCODING 479
SWIDTH 634 0
DWIDTH 9 0
BBX 8 11 1 0
BITMAP
1E
00
1B
00
1F
23
62
C6
CE
D6
E7
ENDCHAR
STARTCHAR uni01E0
ENCODING 480
SWIDTH 765 0
DWIDTH 11 0
BBX 11 15 0 0
BITMAP
0780
0000
0300
0300
0000
0100
0300
0580
0580
0980
1180
1FC0
20C0
40C0
E1E0
ENDCHAR
STARTCHAR uni01E1
ENCODING 481
SWIDTH 634 0
DWIDTH 9 0
BBX 8 12 1 0
BITMAP
1E
00
0C
0C
00
1F
23
62
C6
CE
D6
E7
ENDCHAR
STARTCHAR uni01E2
ENCODING 482
SWIDTH 958 0
DWIDTH 13 0
BBX 15 12 0 0
BITMAP
01E0
0000
00FE
01C2
02C0
04C8
04F8
0980
1F80
2180
418C
E7F8
ENDCHAR
STARTCHAR uni01E3
ENCODING 483
SWIDTH 905 0
DWIDTH 13 0
BBX 12 9 1 0
BITMAP
0780
0000
1FF0
2330
6330
C7C0
CE00
D310
E3E0
ENDCHAR
STARTCHAR uni01E4
ENCODING 484
SWIDTH 780 0
DWIDTH 11 0
BBX 11 10 1 0
BITMAP
0FC0
38C0
7040
6000
E000
C7C0
C180
C7E0
6300
3F00
ENDCHAR
STARTCHAR uni01E5
ENCODING 485
SWIDTH 628 0
DWIDTH 9 0
BBX 9 10 0 -3
BITMAP
0F80
3180
2300
6300
E700
6B00
7700
FF80
C600
F800
ENDCHAR
STARTCHAR Gcaron
ENCODING 486
SWIDTH 780 0
DWIDTH 11 0
BBX 10 13 1 0
BITMAP
1300
0C00
0000
0FC0
38C0
7040
6000
E000
C7C0
C180
C380
6300
3F00
ENDCHAR
STARTCHAR gcaron
ENCODING 487
SWIDTH 628 0
DWIDTH 9 0
BBX 9 13 0 -3
BITMAP
1300
0C00
0000
0F80
3180
2300
6300
E700
6B00
7700
8600
C600
F800
ENDCHAR
STARTCHAR uni01E8
ENCODING 488
SWIDTH 746 0
DWIDTH 10 0
BBX 11 13 0 0
BITMAP
0980
0600
0000
3CE0
18C0
1900
3A00
3C00
3E00
3700
3300
6180
F3C0
ENDCHAR
STARTCHAR uni01E9
ENCODING 489
SWIDTH 626 0
DWIDTH 9 0
BBX 8 13 1 0
BITMAP
4C
30
00
70
30
30
73
66
6C
78
6C
CE
C7
ENDCHAR
STARTCHAR uni01EA
ENCODING 490
SWIDTH 831 0
DWIDTH 12 0
BBX 11 13 2 -3
BITMAP
0F80
38C0
70C0
60E0
E0E0
C0C0
C0C0
C180
6300
3C00
0000
0800
1C00
ENDCHAR
STARTCHAR uni01EB
ENCODING 491
SWIDTH 599 0
DWIDTH 8 0
BBX 8 10 1 -3
BITMAP
1E
23
63
C3
C6
CC
78
00
10
38
ENDCHAR
STARTCHAR uni01EC
ENCODING 492
SWIDTH 831 0
DWIDTH 12 0
BBX 11 15 2 -3
BITMAP
0F00
0000
0F80
38C0
70C0
60E0
E0E0
C0C0
C0C0
C180
6300
3C00
0000
0800
1C00
ENDCHAR
STARTCHAR uni01ED
ENCODING 493
SWIDTH 599 0
DWIDTH 8 0
BBX 8 12 1 -3
BITMAP
1E
00
1E
23
63
C3
C6
CC
78
00
10
38
ENDCHAR
STARTCHAR uni01F0
ENCODING 496
SWIDTH 381 0
DWIDTH 5 0
BBX 8 13 0 -3
BITMAP
13
0C
00
0E
06
06
0E
0C
0C
0C
98
98
F0
ENDCHAR
STARTCHAR uni01F4
ENCODING 500
SWIDTH 780 0
DWIDTH 11 0
BBX 10 13 1 0
BITMAP
0700
0C00
0000
0FC0
38C0
7040
6000
E000
C7C0
C180
C380
6300
3F00
ENDCHAR
STARTCHAR uni01F5
ENCODING 501
SWIDTH 628 0
DWIDTH 9 0
BBX 9 13 0 -3
BITMAP
0700
0C00
0000
0F80
3180
2300
6300
E700
6B00
7700
8600
C600
F800
ENDCHAR
STARTCHAR uni01F8
ENCODING 504
SWIDTH 797 0
DWIDTH 11 0
BBX 12 13 1 0
BITMAP
0C00
0200
0000
3870
1820
1C60
2C40
2640
2640
2340
2380
4180
E080
ENDCHAR
STARTCHAR uni01F9
ENCODING 505
SWIDTH 656 0
DWIDTH 9 0
BBX 8 10 1 0
BITMAP
30
08
00
F7
6B
73
67
66
C6
C7
ENDCHAR
STARTCHAR Aringacute
ENCODING 506
SWIDTH 765 0
DWIDTH 11 0
BBX 11 16 0 0
BITMAP
01C0
0300
0000
0180
0180
0000
0100
0300
0580
0580
0980
1180
1FC0
20C0
40C0
E1E0
ENDCHAR
STARTCHAR aringacute
ENCODING 507
SWIDTH 634 0
DWIDTH 9 0
BBX 8 13 1 0
BITMAP
07
0C
00
06
06
00
1F
23
62
C6
CE
D6
E7
ENDCHAR
STARTCHAR AEacute
ENCODING 508
SWIDTH 958 0
DWIDTH 13 0
BBX 15 13 0 0
BITMAP
0070
00C0
0000
00FE
01C2
02C0
04C8
04F8
0980
1F80
2180
418C
E7F8
ENDCHAR
STARTCHAR aeacute
ENCODING 509
SWIDTH 905 0
DWIDTH 13 0
BBX 12 10 1 0
BITMAP
01C0
0300
0000
1FF0
2330
6330
C7C0
CE00
D310
E3E0
ENDCHAR
STARTCHAR Oslashacute
ENCODING 510
SWIDTH 831 0
DWIDTH 12 0
BBX 13 13 1 0
BITMAP
01C0
0300
0000
07D8
1860
3060
31E0
6370
6460
6860
70C0
7180
DE00
ENDCHAR
STARTCHAR oslashacute
ENCODING 511
SWIDTH 599 0
DWIDTH 8 0
BBX 9 10 1 0
BITMAP
0700
0C00
0000
0E80
3300
6700
6B00
7300
6600
F800
ENDCHAR
STARTCHAR Scommaaccent
ENCODING 536
SWIDTH 587 0
DWIDTH 8 0
BBX 8 16 1 -6
BITMAP
1F
31
71
30
38
1E
06
86
8E
F8
00
18
18
38
10
30
ENDCHAR
STARTCHAR scommaaccent
ENCODING 537
SWIDTH 479 0
DWIDTH 7 0
BBX 7 13 1 -6
BITMAP
3E
64
70
38
9C
8C
F8
00
30
30
70
20
60
ENDCHAR
STARTCHAR Tcommaaccent
ENCODING 538
SWIDTH 716 0
DWIDTH 10 0
BBX 10 16 2 -6
BITMAP
FFC0
8C40
0C00
1C00
1800
1800
1800
1800
3800
7C00
0000
1800
1800
3800
1000
3000
ENDCHAR
STARTCHAR tcommaaccent
ENCODING 539
SWIDTH 375 0
DWIDTH 5 0
BBX 5 15 1 -6
BITMAP
70
60
F8
60
60
60
C0
C0
70
00
60
60
E0
40
C0
ENDCHAR
STARTCHAR uni021E
ENCODING 542
SWIDTH 827 0
DWIDTH 12 0
BBX 13 13 0 0
BITMAP
04C0
0300
0000
3EF8
1870
1860
1860
3FE0
3060
30C0
30C0
70C0
FBE0
ENDCHAR
STARTCHAR uni021F
ENCODING 543
SWIDTH 656 0
DWIDTH 9 0
BBX 8 13 1 0
BITMAP
4C
30
00
70
30
30
67
6B
73
67
66
C6
C7
ENDCHAR
STARTCHAR uni0226
ENCODING 550
SWIDTH 765 0
DWIDTH 11 0
BBX 11 13 0 0
BITMAP
0300
0300
0000
0100
0300
0580
0580
0980
1180
1FC0
20C0
40C0
E1E0
ENDCHAR
STARTCHAR uni0227
ENCODING 551
SWIDTH 634 0
DWIDTH 9 0
BBX 8 10 1 0
BITMAP
0C
0C
00
1F
23
62
C6
CE
D6
E7
ENDCHAR
STARTCHAR uni0228
ENCODING 552
SWIDTH 630 0
DWIDTH 9 0
BBX 9 13 1 -3
BITMAP
3F80
1880
1800
3200
3E00
3200
3000
6000
6100
FE00
1800
0800
3800
ENDCHAR
STARTCHAR uni0229
ENCODING 553
SWIDTH 548 0
DWIDTH 8 0
BBX 7 10 1 -3
BITMAP
1C
66
4C
F8
C0
C6
7C
18
08
38
ENDCHAR
STARTCHAR uni022A
ENCODING 554
SWIDTH 831 0
DWIDTH 12 0
BBX 11 14 2 0
BITMAP
0F00
0000
0D80
0000
0F80
38C0
70C0
60E0
E0E0
C0C0
C0C0
C180
6300
3C00
ENDCHAR
STARTCHAR uni022B
ENCODING 555
SWIDTH 599 0
DWIDTH 8 0
BBX 8 11 1 0
BITMAP
1E
00
1B
00
1E
23
63
C3
C6
CC
78
ENDCHAR
STARTCHAR uni022C
ENCODING 556
SWIDTH 831 0
DWIDTH 12 0
BBX 11 15 2 0
BITMAP
0F00
0000
0680
0B00
0000
0F80
38C0
70C0
60E0
E0E0
C0C0
C0C0
C180
6300
3C00
ENDCHAR
STARTCHAR uni022D
ENCODING 557
SWIDTH 599 0
DWIDTH 8 0
BBX 8 12 1 0
BITMAP
1E
00
0D
16
00
1E
23
63
C3
C6
CC
78
ENDCHAR
STARTCHAR uni022E
ENCODING 558
SWIDTH 831 0
DWIDTH 12 0
BBX 11 13 2 0
BITMAP
0600
0600
0000
0F80
38C0
70C0
60E0
E0E0
C0C0
C0C0
C180
6300
3C00
ENDCHAR
STARTCHAR uni022F
ENCODING 559
SWIDTH 599 0
DWIDTH 8 0
BBX 8 10 1 0
BITMAP
0C
0C
00
1E
23
63
C3
C6
CC
78
ENDCHAR
STARTCHAR uni0230
ENCODING 560
SWIDTH 831 0
DWIDTH 12 0
BBX 11 15 2 0
BITMAP
0F00
0000
0600
0600
0000
0F80
38C0
70C0
60E0
E0E0
C0C0
C0C0
C180
6300
3C00
ENDCHAR
STARTCHAR uni0231
ENCODING 561
SWIDTH 599 0
DWIDTH 8 0
BBX 8 12 1 0
BITMAP
1E
00
0C
0C
00
1E
23
63
C3
C6
CC
78
ENDCHAR
STARTCHAR uni0232
ENCODING 562
SWIDTH 669 0
DWIDTH 9 0
BBX 10 12 2 0
BITMAP
1E00
0000
F1C0
6080
7100
3200
3C00
1800
1800
3000
3000
7800
ENDCHAR
STARTCHAR uni0233
ENCODING 563
SWIDTH 586 0
DWIDTH 8 0
BBX 10 12 0 -3
BITMAP
1E00
0000
79C0
38C0
1880
1900
1A00
0C00
0C00
0800
1000
E000
ENDCHAR
STARTCHAR uni0250
ENCODING 592
SWIDTH 634 0
DWIDTH 9 0
BBX 8 7 1 0
BITMAP
E7
6B
73
63
46
C4
F8
ENDCHAR
STARTCHAR uni0259
ENCODING 601
SWIDTH 548 0
DWIDTH 8 0
BBX 7 7 1 0
BITMAP
7C
C6
06
3E
64
CC
70
ENDCHAR
STARTCHAR uni025F
ENCODING 607
SWIDTH 415 0
DWIDTH 6 0
BBX 8 14 1 -7
BITMAP
03
03
06
06
06
06
0E
0C
0C
3E
0C
98
98
F0
ENDCHAR
STARTCHAR uni0265
ENCODING 613
SWIDTH 656 0
DWIDTH 9 0
BBX 8 10 1 -3
BITMAP
E3
63
66
E6
CE
D6
E6
0C
0C
0E
ENDCHAR
STARTCHAR uni0275
ENCODING 629
SWIDTH 599 0
DWIDTH 8 0
BBX 8 7 1 0
BITMAP
1E
23
63
FF
C6
CC
78
ENDCHAR
STARTCHAR uni0279
ENCODING 633
SWIDTH 496 0
DWIDTH 7 0
BBX 7 7 1 0
BITMAP
06
06
0C
0C
1C
6C
CE
ENDCHAR
STARTCHAR uni0287
ENCODING 647
SWIDTH 375 0
DWIDTH 5 0
BBX 5 9 1 0
BITMAP
70
18
18
30
30
30
F8
30
70
ENDCHAR
STARTCHAR uni0289
ENCODING 649
SWIDTH 655 0
DWIDTH 9 0
BBX 8 7 1 0
BITMAP
E7
63
66
FF
CE
D6
EF
ENDCHAR
STARTCHAR uni028C
ENCODING 652
SWIDTH 584 0
DWIDTH 8 0
BBX 8 7 1 0
BITMAP
04
0C
1C
2C
46
C6
C7
ENDCHAR
STARTCHAR uni028D
ENCODING 653
SWIDTH 822 0
DWIDTH 12 0
BBX 11 7 1 0
BITMAP
0880
1980
3980
2E80
4CC0
CCC0
C4E0
ENDCHAR
STARTCHAR uni028E
ENCODING 654
SWIDTH 586 0
DWIDTH 8 0
BBX 10 10 0 0
BITMAP
01C0
0200
0400
0C00
0C00
1600
2600
4600
C700
E780
ENDCHAR
STARTCHAR uni029E
ENCODING 670
SWIDTH 626 0
DWIDTH 9 0
BBX 8 10 1 -3
BITMAP
E3
73
36
1E
36
66
CE
0C
0C
0E
ENDCHAR
STARTCHAR uni02BB
ENCODING 699
SWIDTH 265 0
DWIDTH 4 0
BBX 3 4 2 6
BITMAP
60
40
E0
C0
ENDCHAR
STARTCHAR afii57929
ENCODING 700
SWIDTH 265 0
DWIDTH 4 0
BBX 3 4 2 6
BITMAP
60
E0
40
C0
ENDCHAR
STARTCHAR afii64937
ENCODING 701
SWIDTH 265 0
DWIDTH 4 0
BBX 3 4 2 6
BITMAP
C0
E0
40
60
ENDCHAR
STARTCHAR circumflex
ENCODING 710
SWIDTH 599 0
DWIDTH 8 0
BBX 5 2 4 8
BITMAP
30
C8
ENDCHAR
STARTCHAR caron
ENCODING 711
SWIDTH 599 0
DWIDTH 8 0
BBX 5 2 4 8
BITMAP
98
60
ENDCHAR
STARTCHAR uni02C8
ENCODING 712
SWIDTH 247 0
DWIDTH 3 0
BBX 2 4 2 6
BITMAP
C0
C0
C0
40
ENDCHAR
STARTCHAR macron
ENCODING 713
SWIDTH 599 0
DWIDTH 8 0
BBX 4 1 4 9
BITMAP
F0
ENDCHAR
STARTCHAR uni02CA
ENCODING 714
SWIDTH 599 0
DWIDTH 8 0
BBX 4 2 5 8
BITMAP
70
C0
ENDCHAR
STARTCHAR uni02CB
ENCODING 715
SWIDTH 599 0
DWIDTH 8 0
BBX 3 2 4 8
BITMAP
C0
20
ENDCHAR
STARTCHAR uni02CD
ENCODING 717
SWIDTH 599 0
DWIDTH 8 0
BBX 4 1 4 -2
BITMAP
F0
ENDCHAR
STARTCHAR uni02CE
ENCODING 718
SWIDTH 599 0
DWIDTH 8 0
BBX 3 2 4 -3
BITMAP
C0
20
ENDCHAR
STARTCHAR uni02CF
ENCODING 719
SWIDTH 599 0
DWIDTH 8 0
BBX 4 2 5 -3
BITMAP
70
C0
ENDCHAR
STARTCHAR breve
ENCODING 728
SWIDTH 599 0
DWIDTH 8 0
BBX 5 2 4 8
BITMAP
88
70
ENDCHAR
STARTCHAR dotaccent
ENCODING 729
SWIDTH 599 0
DWIDTH 8 0
BBX 2 2 5 8
BITMAP
C0
C0
ENDCHAR
STARTCHAR ring
ENCODING 730
SWIDTH 599 0
DWIDTH 8 0
BBX 2 2 5 9
BITMAP
C0
C0
ENDCHAR
STARTCHAR ogonek
ENCODING 731
SWIDTH 599 0
DWIDTH 8 0
BBX 3 2 2 -3
BITMAP
40
E0
ENDCHAR
STARTCHAR tilde
ENCODING 732
SWIDTH 599 0
DWIDTH 8 0
BBX 5 2 4 8
BITMAP
68
B0
ENDCHAR
STARTCHAR hungarumlaut
ENCODING 733
SWIDTH 599 0
DWIDTH 8 0
BBX 5 2 5 8
BITMAP
78
A0
ENDCHAR
STARTCHAR uni02EE
ENCODING 750
SWIDTH 464 0
DWIDTH 6 0
BBX 6 4 2 6
BITMAP
EC
6C
48
D8
ENDCHAR
STARTCHAR uni037E
ENCODING 894
SWIDTH 265 0
DWIDTH 4 0
BBX 4 10 0 -3
BITMAP
30
30
00
00
00
60
60
E0
40
C0
ENDCHAR
STARTCHAR tonos
ENCODING 900
SWIDTH 599 0
DWIDTH 8 0
BBX 4 2 5 8
BITMAP
70
C0
ENDCHAR
STARTCHAR dieresistonos
ENCODING 901
SWIDTH 599 0
DWIDTH 8 0
BBX 5 4 4 9
BITMAP
38
60
00
D8
ENDCHAR
STARTCHAR anoteleia
ENCODING 903
SWIDTH 636 0
DWIDTH 9 0
BBX 2 2 4 3
BITMAP
C0
C0
ENDCHAR
STARTCHAR mu
ENCODING 956
SWIDTH 687 0
DWIDTH 10 0
BBX 9 10 1 -3
BITMAP
7380
3180
3300
6300
6700
6B00
7780
4000
C000
C000
ENDCHAR
STARTCHAR uni1E00
ENCODING 7680
SWIDTH 765 0
DWIDTH 11 0
BBX 11 13 0 -3
BITMAP
0100
0300
0580
0580
0980
1180
1FC0
20C0
40C0
E1E0
0000
0600
0600
ENDCHAR
STARTCHAR uni1E01
ENCODING 7681
SWIDTH 634 0
DWIDTH 9 0
BBX 8 10 1 -3
BITMAP
1F
23
62
C6
CE
D6
E7
00
18
18
ENDCHAR
STARTCHAR uni1E02
ENCODING 7682
SWIDTH 651 0
DWIDTH 9 0
BBX 9 13 1 0
BITMAP
0C00
0C00
0000
3F80
1980
1180
3300
3E00
3200
3300
2300
6700
FE00
ENDCHAR
STARTCHAR uni1E03
ENCODING 7683
SWIDTH 633 0
DWIDTH 9 0
BBX 8 13 1 0
BITMAP
30
30
00
70
30
30
67
7B
73
63
46
C4
F8
ENDCHAR
STARTCHAR uni1E04
ENCODING 7684
SWIDTH 651 0
DWIDTH 9 0
BBX 9 13 1 -3
BITMAP
3F80
1980
1180
3300
3E00
3200
3300
2300
6700
FE00
0000
1800
1800
ENDCHAR
STARTCHAR uni1E05
ENCODING 7685
SWIDTH 633 0
DWIDTH 9 0
BBX 8 13 1 -3
BITMAP
70
30
30
67
7B
73
63
46
C4
F8
00
30
30
ENDCHAR
STARTCHAR uni1E06
ENCODING 7686
SWIDTH 651 0
DWIDTH 9 0
BBX 9 12 1 -2
BITMAP
3F80
1980
1180
3300
3E00
3200
3300
2300
6700
FE00
0000
3C00
ENDCHAR
STARTCHAR uni1E07
ENCODING 7687
SWIDTH 633 0
DWIDTH 9 0
BBX 8 12 1 -2
BITMAP
70
30
30
67
7B
73
63
46
C4
F8
00
78
ENDCHAR
STARTCHAR uni1E08
ENCODING 7688
SWIDTH 740 0
DWIDTH 10 0
BBX 10 16 1 -3
BITMAP
0700
0C00
0000
0FC0
38C0
60C0
6000
E000
C000
C000
E000
6100
3E00
1000
0800
3800
ENDCHAR
STARTCHAR uni1E09
ENCODING 7689
SWIDTH 524 0
DWIDTH 7 0
BBX 7 13 1 -3
BITMAP
0E
18
00
1E
22
62
C0
C0
C4
78
20
10
70
ENDCHAR
STARTCHAR uni1E0A
ENCODING 7690
SWIDTH 822 0
DWIDTH 11 0
BBX 11 13 1 0
BITMAP
0600
0600
0000
3F80
18C0
1860
3060
3060
3060
30C0
30C0
6380
FE00
ENDCHAR
STARTCHAR uni1E0B
ENCODING 7691
SWIDTH 634 0
DWIDTH 9 0
BBX 9 13 1 0
BITMAP
0300
0300
0000
0380
0180
0300
1F00
2300
6300
C700
CE00
DE00
F700
ENDCHAR
STARTCHAR uni1E0C
ENCODING 7692
SWIDTH 822 0
DWIDTH 11 0
BBX 11 13 1 -3
BITMAP
3F80
18C0
1860
3060
3060
3060
30C0
30C0
6380
FE00
0000
0C00
0C00
ENDCHAR
STARTCHAR uni1E0D
ENCODING 7693
SWIDTH 634 0
DWIDTH 9 0
BBX 9 13 1 -3
BITMAP
0380
0180
0300
1F00
2300
6300
C700
CE00
DE00
F700
0000
1800
1800
ENDCHAR
STARTCHAR uni1E0E
ENCODING 7694
SWIDTH 822 0
DWIDTH 11 0
BBX 11 12 1 -2
BITMAP
3F80
18C0
1860
3060
3060
3060
30C0
30C0
6380
FE00
0000
1E00
ENDCHAR
STARTCHAR uni1E0F
ENCODING 7695
SWIDTH 634 0
DWIDTH 9 0
BBX 9 12 1 -2
BITMAP
0380
0180
0300
1F00
2300
6300
C700
CE00
DE00
F700
0000
3C00
ENDCHAR
STARTCHAR uni1E10
ENCODING 7696
SWIDTH 822 0
DWIDTH 11 0
BBX 11 13 1 -3
BITMAP
3F80
18C0
1860
3060
3060
3060
30C0
30C0
6380
FE00
0C00
0400
1C00
ENDCHAR
STARTCHAR uni1E11
ENCODING 7697
SWIDTH 634 0
DWIDTH 9 0
BBX 9 13 1 -3
BITMAP
0380
0180
0300
1F00
2300
6300
C700
CE00
DE00
F700
1800
0800
3800
ENDCHAR
STARTCHAR uni1E12
ENCODING 7698
SWIDTH 822 0
DWIDTH 11 0
BBX 11 13 1 -3
BITMAP
3F80
18C0
1860
3060
3060
3060
30C0
30C0
6380
FE00
0000
0C00
3200
ENDCHAR
STARTCHAR uni1E13
ENCODING 7699
SWIDTH 634 0
DWIDTH 9 0
BBX 9 13 1 -3
BITMAP
0380
0180
0300
1F00
2300
6300
C700
CE00
DE00
F700
0000
1800
6400
ENDCHAR
STARTCHAR uni1E14
ENCODING 7700
SWIDTH 630 0
DWIDTH 9 0
BBX 9 15 1 0
BITMAP
1800
0400
0000
1E00
0000
3F80
1880
1800
3200
3E00
3200
3000
6000
6100
FE00
ENDCHAR
STARTCHAR uni1E15
ENCODING 7701
SWIDTH 548 0
DWIDTH 8 0
BBX 7 12 1 0
BITMAP
30
08
00
3C
00
1C
66
4C
F8
C0
C6
7C
ENDCHAR
STARTCHAR uni1E16
ENCODING 7702
SWIDTH 630 0
DWIDTH 9 0
BBX 9 15 1 0
BITMAP
0700
0C00
0000
1E00
0000
3F80
1880
1800
3200
3E00
3200
3000
6000
6100
FE00
ENDCHAR
STARTCHAR uni1E17
ENCODING 7703
SWIDTH 548 0
DWIDTH 8 0
BBX 7 12 1 0
BITMAP
0E
18
00
3C
00
1C
66
4C
F8
C0
C6
7C
ENDCHAR
STARTCHAR uni1E18
ENCODING 7704
SWIDTH 630 0
DWIDTH 9 0
BBX 9 13 1 -3
BITMAP
3F80
1880
1800
3200
3E00
3200
3000
6000
6100
FE00
0000
1800
6400
ENDCHAR
STARTCHAR uni1E19
ENCODING 7705
SWIDTH 548 0
DWIDTH 8 0
BBX 7 10 1 -3
BITMAP
1C
66
4C
F8
C0
C6
7C
00
18
64
ENDCHAR
STARTCHAR uni1E1A
ENCODING 7706
SWIDTH 630 0
DWIDTH 9 0
BBX 9 13 1 -3
BITMAP
3F80
1880
1800
3200
3E00
3200
3000
6000
6100
FE00
0000
3400
5800
ENDCHAR
STARTCHAR uni1E1B
ENCODING 7707
SWIDTH 548 0
DWIDTH 8 0
BBX 7 10 1 -3
BITMAP
1C
66
4C
F8
C0
C6
7C
00
34
58
ENDCHAR
STARTCHAR uni1E1C
ENCODING 7708
SWIDTH 630 0
DWIDTH 9 0
BBX 9 16 1 -3
BITMAP
2200
1C00
0000
3F80
1880
1800
3200
3E00
3200
3000
6000
6100
FE00
1800
0800
3800
ENDCHAR
STARTCHAR uni1E1D
ENCODING 7709
SWIDTH 548 0
DWIDTH 8 0
BBX 7 13 1 -3
BITMAP
44
38
00
1C
66
4C
F8
C0
C6
7C
18
08
38
ENDCHAR
STARTCHAR uni1E1E
ENCODING 7710
SWIDTH 602 0
DWIDTH 8 0
BBX 9 13 1 0
BITMAP
0C00
0C00
0000
3F80
1880
1000
3200
3E00
3200
3000
2000
6000
F000
ENDCHAR
STARTCHAR uni1E1F
ENCODING 7711
SWIDTH 415 0
DWIDTH 6 0
BBX 8 17 1 -3
BITMAP
0C
0C
00
0F
19
19
30
7C
30
30
70
60
60
60
60
C0
C0
ENDCHAR
STARTCHAR uni1E20
ENCODING 7712
SWIDTH 780 0
DWIDTH 11 0
BBX 10 12 1 0
BITMAP
0F00
0000
0FC0
38C0
7040
6000
E000
C7C0
C180
C380
6300
3F00
ENDCHAR
STARTCHAR uni1E21
ENCODING 7713
SWIDTH 628 0
DWIDTH 9 0
BBX 9 12 0 -3
BITMAP
1E00
0000
0F80
3180
2300
6300
E700
6B00
7700
8600
C600
F800
ENDCHAR
STARTCHAR uni1E22
ENCODING 7714
SWIDTH 827 0
DWIDTH 12 0
BBX 13 13 0 0
BITMAP
0300
0300
0000
3EF8
1870
1860
1860
3FE0
3060
30C0
30C0
70C0
FBE0
ENDCHAR
STARTCHAR uni1E23
ENCODING 7715
SWIDTH 656 0
DWIDTH 9 0
BBX 8 13 1 0
BITMAP
30
30
00
70
30
30
67
6B
73
67
66
C6
C7
ENDCHAR
STARTCHAR uni1E24
ENCODING 7716
SWIDTH 827 0
DWIDTH 12 0
BBX 13 13 0 -3
BITMAP
3EF8
1870
1860
1860
3FE0
3060
30C0
30C0
70C0
FBE0
0000
0600
0600
ENDCHAR
STARTCHAR uni1E25
ENCODING 7717
SWIDTH 656 0
DWIDTH 9 0
BBX 8 13 1 -3
BITMAP
70
30
30
67
6B
73
67
66
C6
C7
00
18
18
ENDCHAR
STARTCHAR uni1E26
ENCODING 7718
SWIDTH 827 0
DWIDTH 12 0
BBX 13 12 0 0
BITMAP
06C0
0000
3EF8
1870
1860
1860
3FE0
3060
30C0
30C0
70C0
FBE0
ENDCHAR
STARTCHAR uni1E27
ENCODING 7719
SWIDTH 656 0
DWIDTH 9 0
BBX 8 12 1 0
BITMAP
6C
00
70
30
30
67
6B
73
67
66
C6
C7
ENDCHAR
STARTCHAR uni1E28
ENCODING 7720
SWIDTH 827 0
DWIDTH 12 0
BBX 13 13 0 -3
BITMAP
3EF8
1870
1860
1860
3FE0
3060
30C0
30C0
70C0
FBE0
0600
0200
0E00
ENDCHAR
STARTCHAR uni1E29
ENCODING 7721
SWIDTH 656 0
DWIDTH 9 0
BBX 8 13 1 -3
BITMAP
70
30
30
67
6B
73
67
66
C6
C7
18
08
38
ENDCHAR
STARTCHAR uni1E2A
ENCODING 7722
SWIDTH 827 0
DWIDTH 12 0
BBX 13 13 0 -3
BITMAP
3EF8
1870
1860
1860
3FE0
3060
30C0
30C0
70C0
FBE0
0000
1100
0E00
ENDCHAR
STARTCHAR uni1E2B
ENCODING 7723
SWIDTH 656 0
DWIDTH 9 0
BBX 8 13 1 -3
BITMAP
70
30
30
67
6B
73
67
66
C6
C7
00
44
38
ENDCHAR
STARTCHAR uni1E2C
ENCODING 7724
SWIDTH 372 0
DWIDTH 5 0
BBX 6 13 1 -3
BITMAP
3C
18
38
30
30
30
30
60
60
F0
00
68
B0
ENDCHAR
STARTCHAR uni1E2D
ENCODING 7725
SWIDTH 319 0
DWIDTH 4 0
BBX 5 13 0 -3
BITMAP
18
18
00
70
30
30
30
70
60
70
00
68
B0
ENDCHAR
STARTCHAR uni1E2E
ENCODING 7726
SWIDTH 372 0
DWIDTH 5 0
BBX 7 15 1 0
BITMAP
0E
18
00
36
00
3C
18
38
30
30
30
30
60
60
F0
ENDCHAR
STARTCHAR uni1E2F
ENCODING 7727
SWIDTH 319 0
DWIDTH 4 0
BBX 6 12 1 0
BITMAP
1C
30
00
6C
00
F0
70
60
60
60
E0
F0
ENDCHAR
STARTCHAR uni1E30
ENCODING 7728
SWIDTH 746 0
DWIDTH 10 0
BBX 11 13 0 0
BITMAP
0380
0600
0000
3CE0
18C0
1900
3A00
3C00
3E00
3700
3300
6180
F3C0
ENDCHAR
STARTCHAR uni1E31
ENCODING 7729
SWIDTH 626 0
DWIDTH 9 0
BBX 8 13 1 0
BITMAP
1C
30
00
70
30
30
73
66
6C
78
6C
CE
C7
ENDCHAR
STARTCHAR uni1E32
ENCODING 7730
SWIDTH 746 0
DWIDTH 10 0
BBX 11 13 0 -3
BITMAP
3CE0
18C0
1900
3A00
3C00
3E00
3700
3300
6180
F3C0
0000
0C00
0C00
ENDCHAR
STARTCHAR uni1E33
ENCODING 7731
SWIDTH 626 0
DWIDTH 9 0
BBX 8 13 1 -3
BITMAP
70
30
30
73
66
6C
78
6C
CE
C7
00
18
18
ENDCHAR
STARTCHAR uni1E34
ENCODING 7732
SWIDTH 746 0
DWIDTH 10 0
BBX 11 12 0 -2
BITMAP
3CE0
18C0
1900
3A00
3C00
3E00
3700
3300
6180
F3C0
0000
1E00
ENDCHAR
STARTCHAR uni1E35
ENCODING 7733
SWIDTH 626 0
DWIDTH 9 0
BBX 8 12 1 -2
BITMAP
70
30
30
73
66
6C
78
6C
CE
C7
00
3C
ENDCHAR
STARTCHAR uni1E36
ENCODING 7734
SWIDTH 611 0
DWIDTH 9 0
BBX 8 13 1 -3
BITMAP
3C
18
18
30
30
30
30
31
61
FF
00
18
18
ENDCHAR
STARTCHAR uni1E37
ENCODING 7735
SWIDTH 319 0
DWIDTH 4 0
BBX 4 13 1 -3
BITMAP
70
30
70
60
60
60
60
E0
C0
E0
00
60
60
ENDCHAR
STARTCHAR uni1E38
ENCODING 7736
SWIDTH 611 0
DWIDTH 9 0
BBX 8 15 1 -3
BITMAP
3C
00
3C
18
18
30
30
30
30
31
61
FF
00
18
18
ENDCHAR
STARTCHAR uni1E39
ENCODING 7737
SWIDTH 319 0
DWIDTH 4 0
BBX 4 15 1 -3
BITMAP
F0
00
70
30
70
60
60
60
60
E0
C0
E0
00
60
60
ENDCHAR
STARTCHAR uni1E3A
ENCODING 7738
SWIDTH 611 0
DWIDTH 9 0
BBX 8 12 1 -2
BITMAP
3C
18
18
30
30
30
30
31
61
FF
00
3C
ENDCHAR
STARTCHAR uni1E3B
ENCODING 7739
SWIDTH 319 0
DWIDTH 4 0
BBX 4 12 1 -2
BITMAP
70
30
70
60
60
60
60
E0
C0
E0
00
F0
ENDCHAR
STARTCHAR uni1E3C
ENCODING 7740
SWIDTH 611 0
DWIDTH 9 0
BBX 8 13 1 -3
BITMAP
3C
18
18
30
30
30
30
31
61
FF
00
18
64
ENDCHAR
STARTCHAR uni1E3D
ENCODING 7741
SWIDTH 319 0
DWIDTH 4 0
BBX 5 13 0 -3
BITMAP
38
18
38
30
30
30
30
70
60
70
00
30
C8
ENDCHAR
STARTCHAR uni1E3E
ENCODING 7742
SWIDTH 926 0
DWIDTH 13 0
BBX 14 13 0 0
BITMAP
01C0
0300
0000
381C
1838
1C70
2CB0
2CB0
2F30
2630
2660
4060
E0F0
ENDCHAR
STARTCHAR uni1E3F
ENCODING 7743
SWIDTH 969 0
DWIDTH 14 0
BBX 12 10 1 0
BITMAP
0380
0600
0000
E670
6FF0
77B0
6730
4660
C660
CE70
ENDCHAR
STARTCHAR uni1E40
ENCODING 7744
SWIDTH 926 0
DWIDTH 13 0
BBX 14 13 0 0
BITMAP
0180
0180
0000
381C
1838
1C70
2CB0
2CB0
2F30
2630
2660
4060
E0F0
ENDCHAR
STARTCHAR uni1E41
ENCODING 7745
SWIDTH 969 0
DWIDTH 14 0
BBX 12 10 1 0
BITMAP
0600
0600
0000
E670
6FF0
77B0
6730
4660
C660
CE70
ENDCHAR
STARTCHAR uni1E42
ENCODING 7746
SWIDTH 926 0
DWIDTH 13 0
BBX 14 13 0 -3
BITMAP
381C
1838
1C70
2CB0
2CB0
2F30
2630
2660
4060
E0F0
0000
0300
0300
ENDCHAR
STARTCHAR uni1E43
ENCODING 7747
SWIDTH 969 0
DWIDTH 14 0
BBX 12 10 1 -3
BITMAP
E670
6FF0
77B0
6730
4660
C660
CE70
0000
0600
0600
ENDCHAR
STARTCHAR uni1E44
ENCODING 7748
SWIDTH 797 0
DWIDTH 11 0
BBX 12 13 1 0
BITMAP
0600
0600
0000
3870
1820
1C60
2C40
2640
2640
2340
2380
4180
E080
ENDCHAR
STARTCHAR uni1E45
ENCODING 7749
SWIDTH 656 0
DWIDTH 9 0
BBX 8 10 1 0
BITMAP
18
18
00
F7
6B
73
67
66
C6
C7
ENDCHAR
STARTCHAR uni1E46
ENCODING 7750
SWIDTH 797 0
DWIDTH 11 0
BBX 12 13 1 -3
BITMAP
3870
1820
1C60
2C40
2640
2640
2340
2380
4180
E080
0000
0C00
0C00
ENDCHAR
STARTCHAR uni1E47
ENCODING 7751
SWIDTH 656 0
DWIDTH 9 0
BBX 8 10 1 -3
BITMAP
F7
6B
73
67
66
C6
C7
00
18
18
ENDCHAR
STARTCHAR uni1E48
ENCODING 7752
SWIDTH 797 0
DWIDTH 11 0
BBX 12 12 1 -2
BITMAP
3870
1820
1C60
2C40
2640
2640
2340
2380
4180
E080
0000
1E00
ENDCHAR
STARTCHAR uni1E49
ENCODING 7753
SWIDTH 656 0
DWIDTH 9 0
BBX 8 9 1 -2
BITMAP
F7
6B
73
67
66
C6
C7
00
3C
ENDCHAR
STARTCHAR uni1E4A
ENCODING 7754
SWIDTH 797 0
DWIDTH 11 0
BBX 12 13 1 -3
BITMAP
3870
1820
1C60
2C40
2640
2640
2340
2380
4180
E080
0000
0600
1900
ENDCHAR
STARTCHAR uni1E4B
ENCODING 7755
SWIDTH 656 0
DWIDTH 9 0
BBX 8 10 1 -3
BITMAP
F7
6B
73
67
66
C6
C7
00
18
64
ENDCHAR
STARTCHAR uni1E4C
ENCODING 7756
SWIDTH 831 0
DWIDTH 12 0
BBX 11 16 2 0
BITMAP
0380
0600
0000
0680
0B00
0000
0F80
38C0
70C0
60E0
E0E0
C0C0
C0C0
C180
6300
3C00
ENDCHAR
STARTCHAR uni1E4D
ENCODING 7757
SWIDTH 599 0
DWIDTH 8 0
BBX 8 13 1 0
BITMAP
07
0C
00
0D
16
00
1E
23
63
C3
C6
CC
78
ENDCHAR
STARTCHAR uni1E4E
ENCODING 7758
SWIDTH 831 0
DWIDTH 12 0
BBX 11 15 2 0
BITMAP
0D80
0000
0680
0B00
0000
0F80
38C0
70C0
60E0
E0E0
C0C0
C0C0
C180
6300
3C00
ENDCHAR
STARTCHAR uni1E4F
ENCODING 7759
SWIDTH 599 0
DWIDTH 8 0
BBX 8 12 1 0
BITMAP
1B
00
0D
16
00
1E
23
63
C3
C6
CC
78
ENDCHAR
STARTCHAR uni1E50
ENCODING 7760
SWIDTH 831 0
DWIDTH 12 0
BBX 11 15 2 0
BITMAP
0C00
0200
0000
0F00
0000
0F80
38C0
70C0
60E0
E0E0
C0C0
C0C0
C180
6300
3C00
ENDCHAR
STARTCHAR uni1E51
ENCODING 7761
SWIDTH 599 0
DWIDTH 8 0
BBX 8 12 1 0
BITMAP
18
04
00
1E
00
1E
23
63
C3
C6
CC
78
ENDCHAR
STARTCHAR uni1E52
ENCODING 7762
SWIDTH 831 0
DWIDTH 12 0
BBX 11 15 2 0
BITMAP
0380
0600
0000
0F00
0000
0F80
38C0
70C0
60E0
E0E0
C0C0
C0C0
C180
6300
3C00
ENDCHAR
STARTCHAR uni1E53
ENCODING 7763
SWIDTH 599 0
DWIDTH 8 0
BBX 8 12 1 0
BITMAP
0E
18
00
1E
00
1E
23
63
C3
C6
CC
78
ENDCHAR
STARTCHAR uni1E54
ENCODING 7764
SWIDTH 628 0
DWIDTH 9 0
BBX 9 13 1 0
BITMAP
0700
0C00
0000
3F00
1980
1180
3180
3300
3E00
3000
6000
6000
F000
ENDCHAR
STARTCHAR uni1E55
ENCODING 7765
SWIDTH 639 0
DWIDTH 9 0
BBX 9 13 1 -3
BITMAP
0700
0C00
0000
7780
3D80
3980
7180
6300
6200
7C00
6000
C000
C000
ENDCHAR
STARTCHAR uni1E56
ENCODING 7766
SWIDTH 628 0
DWIDTH 9 0
BBX 9 13 1 0
BITMAP
0C00
0C00
0000
3F00
1980
1180
3180
3300
3E00
3000
6000
6000
F000
ENDCHAR
STARTCHAR uni1E57
ENCODING 7767
SWIDTH 639 0
DWIDTH 9 0
BBX 9 13 1 -3
BITMAP
0C00
0C00
0000
7780
3D80
3980
7180
6300
6200
7C00
6000
C000
C000
ENDCHAR
STARTCHAR uni1E58
ENCODING 7768
SWIDTH 711 0
DWIDTH 10 0
BBX 10 13 0 0
BITMAP
0600
0600
0000
3FC0
18C0
18C0
1980
3F00
3600
3300
3300
7180
F1C0
ENDCHAR
STARTCHAR uni1E59
ENCODING 7769
SWIDTH 496 0
DWIDTH 7 0
BBX 7 10 1 0
BITMAP
30
30
00
E6
6C
70
60
60
C0
C0
ENDCHAR
STARTCHAR uni1E5A
ENCODING 7770
SWIDTH 711 0
DWIDTH 10 0
BBX 10 13 0 -3
BITMAP
3FC0
18C0
18C0
1980
3F00
3600
3300
3300
7180
F1C0
0000
0C00
0C00
ENDCHAR
STARTCHAR uni1E5B
ENCODING 7771
SWIDTH 496 0
DWIDTH 7 0
BBX 7 10 1 -3
BITMAP
E6
6C
70
60
60
C0
C0
00
60
60
ENDCHAR
STARTCHAR uni1E5C
ENCODING 7772
SWIDTH 711 0
DWIDTH 10 0
BBX 10 15 0 -3
BITMAP
0F00
0000
3FC0
18C0
18C0
1980
3F00
3600
3300
3300
7180
F1C0
0000
0C00
0C00
ENDCHAR
STARTCHAR uni1E5D
ENCODING 7773
SWIDTH 496 0
DWIDTH 7 0
BBX 7 12 1 -3
BITMAP
78
00
E6
6C
70
60
60
C0
C0
00
60
60
ENDCHAR
STARTCHAR uni1E5E
ENCODING 7774
SWIDTH 711 0
DWIDTH 10 0
BBX 10 12 0 -2
BITMAP
3FC0
18C0
18C0
1980
3F00
3600
3300
3300
7180
F1C0
0000
1E00
ENDCHAR
STARTCHAR uni1E5F
ENCODING 7775
SWIDTH 496 0
DWIDTH 7 0
BBX 7 9 1 -2
BITMAP
E6
6C
70
60
60
C0
C0
00
F0
ENDCHAR
STARTCHAR uni1E60
ENCODING 7776
SWIDTH 587 0
DWIDTH 8 0
BBX 8 13 1 0
BITMAP
18
18
00
1F
31
71
30
38
1E
06
86
8E
F8
ENDCHAR
STARTCHAR uni1E61
ENCODING 7777
SWIDTH 479 0
DWIDTH 7 0
BBX 7 10 1 0
BITMAP
18
18
00
3E
64
70
38
9C
8C
F8
ENDCHAR
STARTCHAR uni1E62
ENCODING 7778
SWIDTH 587 0
DWIDTH 8 0
BBX 8 13 1 -3
BITMAP
1F
31
71
30
38
1E
06
86
8E
F8
00
18
18
ENDCHAR
STARTCHAR uni1E63
ENCODING 7779
SWIDTH 479 0
DWIDTH 7 0
BBX 7 10 1 -3
BITMAP
3E
64
70
38
9C
8C
F8
00
30
30
ENDCHAR
STARTCHAR uni1E64
ENCODING 7780
SWIDTH 587 0
DWIDTH 8 0
BBX 8 16 1 0
BITMAP
0C
0C
00
0E
18
00
1F
31
71
30
38
1E
06
86
8E
F8
ENDCHAR
STARTCHAR uni1E65
ENCODING 7781
SWIDTH 479 0
DWIDTH 7 0
BBX 7 13 1 0
BITMAP
18
18
00
0E
18
00
3E
64
70
38
9C
8C
F8
ENDCHAR
STARTCHAR uni1E66
ENCODING 7782
SWIDTH 587 0
DWIDTH 8 0
BBX 8 16 1 0
BITMAP
0C
0C
00
13
0C
00
1F
31
71
30
38
1E
06
86
8E
F8
ENDCHAR
STARTCHAR uni1E67
ENCODING 7783
SWIDTH 479 0
DWIDTH 7 0
BBX 8 13 1 0
BITMAP
0C
0C
00
13
0C
00
3E
64
70
38
9C
8C
F8
ENDCHAR
STARTCHAR uni1E68
ENCODING 7784
SWIDTH 587 0
DWIDTH 8 0
BBX 8 16 1 -3
BITMAP
18
18
00
1F
31
71
30
38
1E
06
86
8E
F8
00
18
18
ENDCHAR
STARTCHAR uni1E69
ENCODING 7785
SWIDTH 479 0
DWIDTH 7 0
BBX 7 13 1 -3
BITMAP
18
18
00
3E
64
70
38
9C
8C
F8
00
30
30
ENDCHAR
STARTCHAR uni1E6A
ENCODING 7786
SWIDTH 716 0
DWIDTH 10 0
BBX 10 13 2 0
BITMAP
0C00
0C00
0000
FFC0
8C40
0C00
1C00
1800
1800
1800
1800
3800
7C00
ENDCHAR
STARTCHAR uni1E6B
ENCODING 7787
SWIDTH 375 0
DWIDTH 5 0
BBX 5 12 1 0
BITMAP
60
60
00
70
60
F8
60
60
60
C0
C0
70
ENDCHAR
STARTCHAR uni1E6C
ENCODING 7788
SWIDTH 716 0
DWIDTH 10 0
BBX 10 13 2 -3
BITMAP
FFC0
8C40
0C00
1C00
1800
1800
1800
1800
3800
7C00
0000
1800
1800
ENDCHAR
STARTCHAR uni1E6D
ENCODING 7789
SWIDTH 375 0
DWIDTH 5 0
BBX 5 12 1 -3
BITMAP
70
60
F8
60
60
60
C0
C0
70
00
60
60
ENDCHAR
STARTCHAR uni1E6E
ENCODING 7790
SWIDTH 716 0
DWIDTH 10 0
BBX 10 12 2 -2
BITMAP
FFC0
8C40
0C00
1C00
1800
1800
1800
1800
3800
7C00
0000
3C00
ENDCHAR
STARTCHAR uni1E6F
ENCODING 7791
SWIDTH 375 0
DWIDTH 5 0
BBX 5 11 1 -2
BITMAP
70
60
F8
60
60
60
C0
C0
70
00
F0
ENDCHAR
STARTCHAR uni1E70
ENCODING 7792
SWIDTH 716 0
DWIDTH 10 0
BBX 10 13 2 -3
BITMAP
FFC0
8C40
0C00
1C00
1800
1800
1800
1800
3800
7C00
0000
1800
6400
ENDCHAR
STARTCHAR uni1E71
ENCODING 7793
SWIDTH 375 0
DWIDTH 5 0
BBX 6 12 0 -3
BITMAP
38
30
7C
30
30
30
60
60
38
00
30
C8
ENDCHAR
STARTCHAR uni1E72
ENCODING 7794
SWIDTH 775 0
DWIDTH 11 0
BBX 10 12 2 -2
BITMAP
F9C0
6080
6080
6080
E100
C100
C100
C100
E200
7C00
0000
6C00
ENDCHAR
STARTCHAR uni1E73
ENCODING 7795
SWIDTH 655 0
DWIDTH 9 0
BBX 8 9 1 -2
BITMAP
E7
63
66
E6
CE
D6
EF
00
6C
ENDCHAR
STARTCHAR uni1E74
ENCODING 7796
SWIDTH 775 0
DWIDTH 11 0
BBX 10 13 2 -3
BITMAP
F9C0
6080
6080
6080
E100
C100
C100
C100
E200
7C00
0000
3400
5800
ENDCHAR
STARTCHAR uni1E75
ENCODING 7797
SWIDTH 655 0
DWIDTH 9 0
BBX 8 10 1 -3
BITMAP
E7
63
66
E6
CE
D6
EF
00
34
58
ENDCHAR
STARTCHAR uni1E76
ENCODING 7798
SWIDTH 775 0
DWIDTH 11 0
BBX 10 13 2 -3
BITMAP
F9C0
6080
6080
6080
E100
C100
C100
C100
E200
7C00
0000
1800
6400
ENDCHAR
STARTCHAR uni1E77
ENCODING 7799
SWIDTH 655 0
DWIDTH 9 0
BBX 8 10 1 -3
BITMAP
E7
63
66
E6
CE
D6
EF
00
18
64
ENDCHAR
STARTCHAR uni1E78
ENCODING 7800
SWIDTH 775 0
DWIDTH 11 0
BBX 10 16 2 0
BITMAP
0E00
1800
0000
1A00
2C00
0000
F9C0
6080
6080
6080
E100
C100
C100
C100
E200
7C00
ENDCHAR
STARTCHAR uni1E79
ENCODING 7801
SWIDTH 655 0
DWIDTH 9 0
BBX 8 13 1 0
BITMAP
0E
18
00
1A
2C
00
E7
63
66
E6
CE
D6
EF
ENDCHAR
STARTCHAR uni1E7A
ENCODING 7802
SWIDTH 775 0
DWIDTH 11 0
BBX 10 14 2 0
BITMAP
3600
0000
1E00
0000
F9C0
6080
6080
6080
E100
C100
C100
C100
E200
7C00
ENDCHAR
STARTCHAR uni1E7B
ENCODING 7803
SWIDTH 655 0
DWIDTH 9 0
BBX 8 11 1 0
BITMAP
36
00
3C
00
E7
63
66
E6
CE
D6
EF
ENDCHAR
STARTCHAR uni1E7C
ENCODING 7804
SWIDTH 741 0
DWIDTH 10 0
BBX 11 13 2 0
BITMAP
0D00
1600
0000
F0E0
6040
6080
7180
3100
3200
3600
3C00
1800
1800
ENDCHAR
STARTCHAR uni1E7D
ENCODING 7805
SWIDTH 584 0
DWIDTH 8 0
BBX 8 10 1 0
BITMAP
1A
2C
00
E3
63
62
34
38
30
20
ENDCHAR
STARTCHAR uni1E7E
ENCODING 7806
SWIDTH 741 0
DWIDTH 10 0
BBX 11 13 2 -3
BITMAP
F0E0
6040
6080
7180
3100
3200
3600
3C00
1800
1800
0000
0C00
0C00
ENDCHAR
STARTCHAR uni1E7F
ENCODING 7807
SWIDTH 584 0
DWIDTH 8 0
BBX 8 10 1 -3
BITMAP
E3
63
62
34
38
30
20
00
30
30
ENDCHAR
STARTCHAR Wgrave
ENCODING 7808
SWIDTH 922 0
DWIDTH 13 0
BBX 13 13 2 0
BITMAP
0C00
0200
0000
F238
6310
6720
6720
6B40
6B40
7380
7380
6300
6300
ENDCHAR
STARTCHAR wgrave
ENCODING 7809
SWIDTH 822 0
DWIDTH 12 0
BBX 11 10 1 0
BITMAP
1800
0400
0000
E460
6660
6640
2E80
3380
3300
2200
ENDCHAR
STARTCHAR Wacute
ENCODING 7810
SWIDTH 922 0
DWIDTH 13 0
BBX 13 13 2 0
BITMAP
0380
0600
0000
F238
6310
6720
6720
6B40
6B40
7380
7380
6300
6300
ENDCHAR
STARTCHAR wacute
ENCODING 7811
SWIDTH 822 0
DWIDTH 12 0
BBX 11 10 1 0
BITMAP
0700
0C00
0000
E460
6660
6640
2E80
3380
3300
2200
ENDCHAR
STARTCHAR Wdieresis
ENCODING 7812
SWIDTH 922 0
DWIDTH 13 0
BBX 13 12 2 0
BITMAP
0D80
0000
F238
6310
6720
6720
6B40
6B40
7380
7380
6300
6300
ENDCHAR
STARTCHAR wdieresis
ENCODING 7813
SWIDTH 822 0
DWIDTH 12 0
BBX 11 9 1 0
BITMAP
1B00
0000
E460
6660
6640
2E80
3380
3300
2200
ENDCHAR
STARTCHAR uni1E86
ENCODING 7814
SWIDTH 922 0
DWIDTH 13 0
BBX 13 13 2 0
BITMAP
0600
0600
0000
F238
6310
6720
6720
6B40
6B40
7380
7380
6300
6300
ENDCHAR
STARTCHAR uni1E87
ENCODING 7815
SWIDTH 822 0
DWIDTH 12 0
BBX 11 10 1 0
BITMAP
0600
0600
0000
E460
6660
6640
2E80
3380
3300
2200
ENDCHAR
STARTCHAR uni1E88
ENCODING 7816
SWIDTH 922 0
DWIDTH 13 0
BBX 13 13 2 -3
BITMAP
F238
6310
6720
6720
6B40
6B40
7380
7380
6300
6300
0000
0C00
0C00
ENDCHAR
STARTCHAR uni1E89
ENCODING 7817
SWIDTH 822 0
DWIDTH 12 0
BBX 11 10 1 -3
BITMAP
E460
6660
6640
2E80
3380
3300
2200
0000
0C00
0C00
ENDCHAR
STARTCHAR uni1E8A
ENCODING 7818
SWIDTH 672 0
DWIDTH 9 0
BBX 11 13 0 0
BITMAP
0600
0600
0000
3CE0
1840
0C80
0D00
0E00
0E00
1700
2300
4380
E780
ENDCHAR
STARTCHAR uni1E8B
ENCODING 7819
SWIDTH 534 0
DWIDTH 7 0
BBX 7 10 1 0
BITMAP
18
18
00
66
36
3C
18
38
CC
CE
ENDCHAR
STARTCHAR uni1E8C
ENCODING 7820
SWIDTH 672 0
DWIDTH 9 0
BBX 11 12 0 0
BITMAP
1B00
0000
3CE0
1840
0C80
0D00
0E00
0E00
1700
2300
4380
E780
ENDCHAR
STARTCHAR uni1E8D
ENCODING 7821
SWIDTH 534 0
DWIDTH 7 0
BBX 7 9 1 0
BITMAP
36
00
66
36
3C
18
38
CC
CE
ENDCHAR
STARTCHAR uni1E8E
ENCODING 7822
SWIDTH 669 0
DWIDTH 9 0
BBX 10 13 2 0
BITMAP
0C00
0C00
0000
F1C0
6080
7100
3200
3C00
1800
1800
3000
3000
7800
ENDCHAR
STARTCHAR uni1E8F
ENCODING 7823
SWIDTH 586 0
DWIDTH 8 0
BBX 10 13 0 -3
BITMAP
0C00
0C00
0000
79C0
38C0
1880
1900
1A00
0C00
0C00
0800
1000
E000
ENDCHAR
STARTCHAR uni1E90
ENCODING 7824
SWIDTH 684 0
DWIDTH 10 0
BBX 10 13 1 0
BITMAP
0300
0C80
0000
3FC0
2180
0300
0700
0E00
1C00
3800
3000
6180
FF00
ENDCHAR
STARTCHAR uni1E91
ENCODING 7825
SWIDTH 567 0
DWIDTH 8 0
BBX 8 10 1 0
BITMAP
0C
32
00
3F
46
0C
18
30
62
FE
ENDCHAR
STARTCHAR uni1E92
ENCODING 7826
SWIDTH 684 0
DWIDTH 10 0
BBX 10 13 1 -3
BITMAP
3FC0
2180
0300
0700
0E00
1C00
3800
3000
6180
FF00
0000
1800
1800
ENDCHAR
STARTCHAR uni1E93
ENCODING 7827
SWIDTH 567 0
DWIDTH 8 0
BBX 8 10 1 -3
BITMAP
3F
46
0C
18
30
62
FE
00
18
18
ENDCHAR
STARTCHAR uni1E94
ENCODING 7828
SWIDTH 684 0
DWIDTH 10 0
BBX 10 12 1 -2
BITMAP
3FC0
2180
0300
0700
0E00
1C00
3800
3000
6180
FF00
0000
3C00
ENDCHAR
STARTCHAR uni1E95
ENCODING 7829
SWIDTH 567 0
DWIDTH 8 0
BBX 8 9 1 -2
BITMAP
3F
46
0C
18
30
62
FE
00
3C
ENDCHAR
STARTCHAR uni1E96
ENCODING 7830
SWIDTH 656 0
DWIDTH 9 0
BBX 8 12 1 -2
BITMAP
70
30
30
67
6B
73
67
66
C6
C7
00
3C
ENDCHAR
STARTCHAR uni1E97
ENCODING 7831
SWIDTH 375 0
DWIDTH 5 0
BBX 5 11 1 0
BITMAP
D8
00
70
60
F8
60
60
60
C0
C0
70
ENDCHAR
STARTCHAR uni1E98
ENCODING 7832
SWIDTH 822 0
DWIDTH 12 0
BBX 11 10 1 0
BITMAP
0600
0600
0000
E460
6660
6640
2E80
3380
3300
2200
ENDCHAR
STARTCHAR uni1E99
ENCODING 7833
SWIDTH 586 0
DWIDTH 8 0
BBX 10 13 0 -3
BITMAP
0C00
0C00
0000
79C0
38C0
1880
1900
1A00
0C00
0C00
0800
1000
E000
ENDCHAR
STARTCHAR uni1EA0
ENCODING 7840
SWIDTH 765 0
DWIDTH 11 0
BBX 11 13 0 -3
BITMAP
0100
0300
0580
0580
0980
1180
1FC0
20C0
40C0
E1E0
0000
0600
0600
ENDCHAR
STARTCHAR uni1EA1
ENCODING 7841
SWIDTH 634 0
DWIDTH 9 0
BBX 8 10 1 -3
BITMAP
1F
23
62
C6
CE
D6
E7
00
18
18
ENDCHAR
STARTCHAR uni1EA4
ENCODING 7844
SWIDTH 765 0
DWIDTH 11 0
BBX 11 16 0 0
BITMAP
01C0
0300
0000
0180
0640
0000
0100
0300
0580
0580
0980
1180
1FC0
20C0
40C0
E1E0
ENDCHAR
STARTCHAR uni1EA5
ENCODING 7845
SWIDTH 634 0
DWIDTH 9 0
BBX 8 13 1 0
BITMAP
07
0C
00
06
19
00
1F
23
62
C6
CE
D6
E7
ENDCHAR
STARTCHAR uni1EA6
ENCODING 7846
SWIDTH 765 0
DWIDTH 11 0
BBX 11 16 0 0
BITMAP
0600
0100
0000
0180
0640
0000
0100
0300
0580
0580
0980
1180
1FC0
20C0
40C0
E1E0
ENDCHAR
STARTCHAR uni1EA7
ENCODING 7847
SWIDTH 634 0
DWIDTH 9 0
BBX 8 13 1 0
BITMAP
18
04
00
06
19
00
1F
23
62
C6
CE
D6
E7
ENDCHAR
STARTCHAR uni1EAA
ENCODING 7850
SWIDTH 765 0
DWIDTH 11 0
BBX 11 16 0 0
BITMAP
0340
0580
0000
0180
0640
0000
0100
0300
0580
0580
0980
1180
1FC0
20C0
40C0
E1E0
ENDCHAR
STARTCHAR uni1EAB
ENCODING 7851
SWIDTH 634 0
DWIDTH 9 0
BBX 8 13 1 0
BITMAP
0D
16
00
06
19
00
1F
23
62
C6
CE
D6
E7
ENDCHAR
STARTCHAR uni1EAC
ENCODING 7852
SWIDTH 765 0
DWIDTH 11 0
BBX 11 16 0 -3
BITMAP
0300
0C80
0000
0100
0300
0580
0580
0980
1180
1FC0
20C0
40C0
E1E0
0000
0600
0600
ENDCHAR
STARTCHAR uni1EAD
ENCODING 7853
SWIDTH 634 0
DWIDTH 9 0
BBX 8 13 1 -3
BITMAP
0C
32
00
1F
23
62
C6
CE
D6
E7
00
18
18
ENDCHAR
STARTCHAR uni1EAE
ENCODING 7854
SWIDTH 765 0
DWIDTH 11 0
BBX 11 16 0 0
BITMAP
0380
0600
0000
0880
0700
0000
0100
0300
0580
0580
0980
1180
1FC0
20C0
40C0
E1E0
ENDCHAR
STARTCHAR uni1EAF
ENCODING 7855
SWIDTH 634 0
DWIDTH 9 0
BBX 8 13 1 0
BITMAP
07
0C
00
11
0E
00
1F
23
62
C6
CE
D6
E7
ENDCHAR
STARTCHAR uni1EB0
ENCODING 7856
SWIDTH 765 0
DWIDTH 11 0
BBX 11 16 0 0
BITMAP
0C00
0200
0000
0880
0700
0000
0100
0300
0580
0580
0980
1180
1FC0
20C0
40C0
E1E0
ENDCHAR
STARTCHAR uni1EB1
ENCODING 7857
SWIDTH 634 0
DWIDTH 9 0
BBX 8 13 1 0
BITMAP
18
04
00
11
0E
00
1F
23
62
C6
CE
D6
E7
ENDCHAR
STARTCHAR uni1EB4
ENCODING 7860
SWIDTH 765 0
DWIDTH 11 0
BBX 11 16 0 0
BITMAP
0680
0B00
0000
0880
0700
0000
0100
0300
0580
0580
0980
1180
1FC0
20C0
40C0
E1E0
ENDCHAR
STARTCHAR uni1EB5
ENCODING 7861
SWIDTH 634 0
DWIDTH 9 0
BBX 8 13 1 0
BITMAP
0D
16
00
11
0E
00
1F
23
62
C6
CE
D6
E7
ENDCHAR
STARTCHAR uni1EB6
ENCODING 7862
SWIDTH 765 0
DWIDTH 11 0
BBX 11 16 0 -3
BITMAP
0880
0700
0000
0100
0300
0580
0580
0980
1180
1FC0
20C0
40C0
E1E0
0000
0600
0600
ENDCHAR
STARTCHAR uni1EB7
ENCODING 7863
SWIDTH 634 0
DWIDTH 9 0
BBX 8 13 1 -3
BITMAP
22
1C
00
1F
23
62
C6
CE
D6
E7
00
18
18
ENDCHAR
STARTCHAR uni1EB8
ENCODING 7864
SWIDTH 630 0
DWIDTH 9 0
BBX 9 13 1 -3
BITMAP
3F80
1880
1800
3200
3E00
3200
3000
6000
6100
FE00
0000
1800
1800
ENDCHAR
STARTCHAR uni1EB9
ENCODING 7865
SWIDTH 548 0
DWIDTH 8 0
BBX 7 10 1 -3
BITMAP
1C
66
4C
F8
C0
C6
7C
00
18
18
ENDCHAR
STARTCHAR uni1EBC
ENCODING 7868
SWIDTH 630 0
DWIDTH 9 0
BBX 9 13 1 0
BITMAP
0D00
1600
0000
3F80
1880
1800
3200
3E00
3200
3000
6000
6100
FE00
ENDCHAR
STARTCHAR uni1EBD
ENCODING 7869
SWIDTH 548 0
DWIDTH 8 0
BBX 7 10 1 0
BITMAP
1A
2C
00
1C
66
4C
F8
C0
C6
7C
ENDCHAR
STARTCHAR uni1EBE
ENCODING 7870
SWIDTH 630 0
DWIDTH 9 0
BBX 9 16 1 0
BITMAP
0700
0C00
0000
0600
1900
0000
3F80
1880
1800
3200
3E00
3200
3000
6000
6100
FE00
ENDCHAR
STARTCHAR uni1EBF
ENCODING 7871
SWIDTH 548 0
DWIDTH 8 0
BBX 7 13 1 0
BITMAP
0E
18
00
0C
32
00
1C
66
4C
F8
C0
C6
7C
ENDCHAR
STARTCHAR uni1EC0
ENCODING 7872
SWIDTH 630 0
DWIDTH 9 0
BBX 9 16 1 0
BITMAP
1800
0400
0000
0600
1900
0000
3F80
1880
1800
3200
3E00
3200
3000
6000
6100
FE00
ENDCHAR
STARTCHAR uni1EC1
ENCODING 7873
SWIDTH 548 0
DWIDTH 8 0
BBX 7 13 1 0
BITMAP
30
08
00
0C
32
00
1C
66
4C
F8
C0
C6
7C
ENDCHAR
STARTCHAR uni1EC4
ENCODING 7876
SWIDTH 630 0
DWIDTH 9 0
BBX 9 16 1 0
BITMAP
0D00
1600
0000
0600
1900
0000
3F80
1880
1800
3200
3E00
3200
3000
6000
6100
FE00
ENDCHAR
STARTCHAR uni1EC5
ENCODING 7877
SWIDTH 548 0
DWIDTH 8 0
BBX 7 13 1 0
BITMAP
1A
2C
00
0C
32
00
1C
66
4C
F8
C0
C6
7C
ENDCHAR
STARTCHAR uni1EC6
ENCODING 7878
SWIDTH 630 0
DWIDTH 9 0
BBX 9 16 1 -3
BITMAP
0600
1900
0000
3F80
1880
1800
3200
3E00
3200
3000
6000
6100
FE00
0000
1800
1800
ENDCHAR
STARTCHAR uni1EC7
ENCODING 7879
SWIDTH 548 0
DWIDTH 8 0
BBX 7 13 1 -3
BITMAP
0C
32
00
1C
66
4C
F8
C0
C6
7C
00
18
18
ENDCHAR
STARTCHAR uni1ECA
ENCODING 7882
SWIDTH 372 0
DWIDTH 5 0
BBX 6 13 1 -3
BITMAP
3C
18
38
30
30
30
30
60
60
F0
00
60
60
ENDCHAR
STARTCHAR uni1ECB
ENCODING 7883
SWIDTH 319 0
DWIDTH 4 0
BBX 4 13 1 -3
BITMAP
30
30
00
E0
60
60
60
E0
C0
E0
00
60
60
ENDCHAR
STARTCHAR uni1ECC
ENCODING 7884
SWIDTH 831 0
DWIDTH 12 0
BBX 11 13 2 -3
BITMAP
0F80
38C0
70C0
60E0
E0E0
C0C0
C0C0
C180
6300
3C00
0000
0C00
0C00
ENDCHAR
STARTCHAR uni1ECD
ENCODING 7885
SWIDTH 599 0
DWIDTH 8 0
BBX 8 10 1 -3
BITMAP
1E
23
63
C3
C6
CC
78
00
30
30
ENDCHAR
STARTCHAR uni1ED0
ENCODING 7888
SWIDTH 831 0
DWIDTH 12 0
BBX 11 16 2 0
BITMAP
0380
0600
0000
0300
0C80
0000
0F80
38C0
70C0
60E0
E0E0
C0C0
C0C0
C180
6300
3C00
ENDCHAR
STARTCHAR uni1ED1
ENCODING 7889
SWIDTH 599 0
DWIDTH 8 0
BBX 8 13 1 0
BITMAP
07
0C
00
06
19
00
1E
23
63
C3
C6
CC
78
ENDCHAR
STARTCHAR uni1ED2
ENCODING 7890
SWIDTH 831 0
DWIDTH 12 0
BBX 11 16 2 0
BITMAP
0C00
0200
0000
0300
0C80
0000
0F80
38C0
70C0
60E0
E0E0
C0C0
C0C0
C180
6300
3C00
ENDCHAR
STARTCHAR uni1ED3
ENCODING 7891
SWIDTH 599 0
DWIDTH 8 0
BBX 8 13 1 0
BITMAP
18
04
00
06
19
00
1E
23
63
C3
C6
CC
78
ENDCHAR
STARTCHAR uni1ED6
ENCODING 7894
SWIDTH 831 0
DWIDTH 12 0
BBX 11 16 2 0
BITMAP
0680
0B00
0000
0300
0C80
0000
0F80
38C0
70C0
60E0
E0E0
C0C0
C0C0
C180
6300
3C00
ENDCHAR
STARTCHAR uni1ED7
ENCODING 7895
SWIDTH 599 0
DWIDTH 8 0
BBX 8 13 1 0
BITMAP
0D
16
00
06
19
00
1E
23
63
C3
C6
CC
78
ENDCHAR
STARTCHAR uni1ED8
ENCODING 7896
SWIDTH 831 0
DWIDTH 12 0
BBX 11 16 2 -3
BITMAP
0300
0C80
0000
0F80
38C0
70C0
60E0
E0E0
C0C0
C0C0
C180
6300
3C00
0000
0C00
0C00
ENDCHAR
STARTCHAR uni1ED9
ENCODING 7897
SWIDTH 599 0
DWIDTH 8 0
BBX 8 13 1 -3
BITMAP
0C
32
00
1E
23
63
C3
C6
CC
78
00
30
30
ENDCHAR
STARTCHAR uni1EDA
ENCODING 7898
SWIDTH 831 0
DWIDTH 12 0
BBX 13 13 2 0
BITMAP
01C0
0300
0000
0F98
38F8
70D0
60F0
E0E0
C0C0
C0C0
C180
6300
3C00
ENDCHAR
STARTCHAR uni1EDB
ENCODING 7899
SWIDTH 599 0
DWIDTH 8 0
BBX 11 10 1 0
BITMAP
0380
0600
0000
1E60
23E0
6340
C3C0
C600
CC00
7800
ENDCHAR
STARTCHAR uni1EDC
ENCODING 7900
SWIDTH 831 0
DWIDTH 12 0
BBX 13 13 2 0
BITMAP
0600
0100
0000
0F98
38F8
70D0
60F0
E0E0
C0C0
C0C0
C180
6300
3C00
ENDCHAR
STARTCHAR uni1EDD
ENCODING 7901
SWIDTH 599 0
DWIDTH 8 0
BBX 11 10 1 0
BITMAP
0C00
0200
0000
1E60
23E0
6340
C3C0
C600
CC00
7800
ENDCHAR
STARTCHAR uni1EE0
ENCODING 7904
SWIDTH 831 0
DWIDTH 12 0
BBX 13 13 2 0
BITMAP
0340
0580
0000
0F98
38F8
70D0
60F0
E0E0
C0C0
C0C0
C180
6300
3C00
ENDCHAR
STARTCHAR uni1EE1
ENCODING 7905
SWIDTH 599 0
DWIDTH 8 0
BBX 11 10 1 0
BITMAP
0680
0B00
0000
1E60
23E0
6340
C3C0
C600
CC00
7800
ENDCHAR
STARTCHAR uni1EE2
ENCODING 7906
SWIDTH 831 0
DWIDTH 12 0
BBX 13 13 2 -3
BITMAP
0F98
38F8
70D0
60F0
E0E0
C0C0
C0C0
C180
6300
3C00
0000
0C00
0C00
ENDCHAR
STARTCHAR uni1EE3
ENCODING 7907
SWIDTH 599 0
DWIDTH 8 0
BBX 11 10 1 -3
BITMAP
1E60
23E0
6340
C3C0
C600
CC00
7800
0000
1800
1800
ENDCHAR
STARTCHAR uni1EE4
ENCODING 7908
SWIDTH 775 0
DWIDTH 11 0
BBX 10 13 2 -3
BITMAP
F9C0
6080
6080
6080
E100
C100
C100
C100
E200
7C00
0000
1800
1800
ENDCHAR
STARTCHAR uni1EE5
ENCODING 7909
SWIDTH 655 0
DWIDTH 9 0
BBX 8 10 1 -3
BITMAP
E7
63
66
E6
CE
D6
EF
00
18
18
ENDCHAR
STARTCHAR uni1EE8
ENCODING 7912
SWIDTH 775 0
DWIDTH 11 0
BBX 12 13 2 0
BITMAP
0380
0600
0000
F9F0
60F0
60A0
60E0
E100
C100
C100
C100
E200
7C00
ENDCHAR
STARTCHAR uni1EE9
ENCODING 7913
SWIDTH 655 0
DWIDTH 9 0
BBX 11 10 1 0
BITMAP
0380
0600
0000
E760
63E0
6640
E6C0
CE00
D600
EF00
ENDCHAR
STARTCHAR uni1EEA
ENCODING 7914
SWIDTH 775 0
DWIDTH 11 0
BBX 12 13 2 0
BITMAP
0C00
0200
0000
F9F0
60F0
60A0
60E0
E100
C100
C100
C100
E200
7C00
ENDCHAR
STARTCHAR uni1EEB
ENCODING 7915
SWIDTH 655 0
DWIDTH 9 0
BBX 11 10 1 0
BITMAP
0C00
0200
0000
E760
63E0
6640
E6C0
CE00
D600
EF00
ENDCHAR
STARTCHAR uni1EEE
ENCODING 7918
SWIDTH 775 0
DWIDTH 11 0
BBX 12 13 2 0
BITMAP
0680
0B00
0000
F9F0
60F0
60A0
60E0
E100
C100
C100
C100
E200
7C00
ENDCHAR
STARTCHAR uni1EEF
ENCODING 7919
SWIDTH 655 0
DWIDTH 9 0
BBX 11 10 1 0
BITMAP
0680
0B00
0000
E760
63E0
6640
E6C0
CE00
D600
EF00
ENDCHAR
STARTCHAR uni1EF0
ENCODING 7920
SWIDTH 775 0
DWIDTH 11 0
BBX 12 13 2 -3
BITMAP
F9F0
60F0
60A0
60E0
E100
C100
C100
C100
E200
7C00
0000
1800
1800
ENDCHAR
STARTCHAR uni1EF1
ENCODING 7921
SWIDTH 655 0
DWIDTH 9 0
BBX 11 10 1 -3
BITMAP
E760
63E0
6640
E6C0
CE00
D600
EF00
0000
1800
1800
ENDCHAR
STARTCHAR Ygrave
ENCODING 7922
SWIDTH 669 0
DWIDTH 9 0
BBX 10 13 2 0
BITMAP
3000
0800
0000
F1C0
6080
7100
3200
3C00
1800
1800
3000
3000
7800
ENDCHAR
STARTCHAR ygrave
ENCODING 7923
SWIDTH 586 0
DWIDTH 8 0
BBX 10 13 0 -3
BITMAP
1800
0400
0000
79C0
38C0
1880
1900
1A00
0C00
0C00
0800
1000
E000
ENDCHAR
STARTCHAR uni1EF4
ENCODING 7924
SWIDTH 669 0
DWIDTH 9 0
BBX 10 13 2 -3
BITMAP
F1C0
6080
7100
3200
3C00
1800
1800
3000
3000
7800
0000
1800
1800
ENDCHAR
STARTCHAR uni1EF5
ENCODING 7925
SWIDTH 586 0
DWIDTH 8 0
BBX 10 13 0 -6
BITMAP
79C0
38C0
1880
1900
1A00
0C00
0C00
0800
1000
E000
0000
3000
3000
ENDCHAR
STARTCHAR uni1EF8
ENCODING 7928
SWIDTH 669 0
DWIDTH 9 0
BBX 10 13 2 0
BITMAP
1A00
2C00
0000
F1C0
6080
7100
3200
3C00
1800
1800
3000
3000
7800
ENDCHAR
STARTCHAR uni1EF9
ENCODING 7929
SWIDTH 586 0
DWIDTH 8 0
BBX 10 13 0 -3
BITMAP
0D00
1600
0000
79C0
38C0
1880
1900
1A00
0C00
0C00
0800
1000
E000
ENDCHAR
STARTCHAR uni2000
ENCODING 8192
SWIDTH 500 0
DWIDTH 7 0
BBX 1 1 0 0
BITMAP
00
ENDCHAR
STARTCHAR uni2001
ENCODING 8193
SWIDTH 1000 0
DWIDTH 14 0
BBX 1 1 0 0
BITMAP
00
ENDCHAR
STARTCHAR uni2002
ENCODING 8194
SWIDTH 500 0
DWIDTH 7 0
BBX 1 1 0 0
BITMAP
00
ENDCHAR
STARTCHAR uni2003
ENCODING 8195
SWIDTH 1000 0
DWIDTH 14 0
BBX 1 1 0 0
BITMAP
00
ENDCHAR
STARTCHAR uni2004
ENCODING 8196
SWIDTH 333 0
DWIDTH 5 0
BBX 1 1 0 0
BITMAP
00
ENDCHAR
STARTCHAR uni2005
ENCODING 8197
SWIDTH 250 0
DWIDTH 3 0
BBX 1 1 0 0
BITMAP
00
ENDCHAR
STARTCHAR uni2006
ENCODING 8198
SWIDTH 167 0
DWIDTH 2 0
BBX 1 1 0 0
BITMAP
00
ENDCHAR
STARTCHAR uni2007
ENCODING 8199
SWIDTH 623 0
DWIDTH 9 0
BBX 1 1 0 0
BITMAP
00
ENDCHAR
STARTCHAR uni2008
ENCODING 8200
SWIDTH 265 0
DWIDTH 4 0
BBX 1 1 0 0
BITMAP
00
ENDCHAR
STARTCHAR uni2009
ENCODING 8201
SWIDTH 200 0
DWIDTH 3 0
BBX 1 1 0 0
BITMAP
00
ENDCHAR
STARTCHAR uni200A
ENCODING 8202
SWIDTH 100 0
DWIDTH 1 0
BBX 1 1 0 0
BITMAP
00
ENDCHAR
STARTCHAR uni200B
ENCODING 8203
SWIDTH 0 0
DWIDTH 0 0
BBX 1 1 0 0
BITMAP
00
ENDCHAR
STARTCHAR uni2010
ENCODING 8208
SWIDTH 289 0
DWIDTH 4 0
BBX 3 1 1 4
BITMAP
E0
ENDCHAR
STARTCHAR uni2011
ENCODING 8209
SWIDTH 289 0
DWIDTH 4 0
BBX 3 1 1 4
BITMAP
E0
ENDCHAR
STARTCHAR figuredash
ENCODING 8210
SWIDTH 500 0
DWIDTH 7 0
BBX 6 1 1 4
BITMAP
FC
ENDCHAR
STARTCHAR endash
ENCODING 8211
SWIDTH 500 0
DWIDTH 7 0
BBX 6 1 1 4
BITMAP
FC
ENDCHAR
STARTCHAR emdash
ENCODING 8212
SWIDTH 1000 0
DWIDTH 14 0
BBX 13 1 1 3
BITMAP
FFF8
ENDCHAR
STARTCHAR afii00208
ENCODING 8213
SWIDTH 1000 0
DWIDTH 14 0
BBX 13 1 1 3
BITMAP
FFF8
ENDCHAR
STARTCHAR quoteleft
ENCODING 8216
SWIDTH 265 0
DWIDTH 4 0
BBX 3 4 2 6
BITMAP
60
40
E0
C0
ENDCHAR
STARTCHAR quoteright
ENCODING 8217
SWIDTH 265 0
DWIDTH 4 0
BBX 3 4 2 6
BITMAP
60
E0
40
C0
ENDCHAR
STARTCHAR quotesinglbase
ENCODING 8218
SWIDTH 265 0
DWIDTH 4 0
BBX 3 5 0 -3
BITMAP
60
60
E0
40
C0
ENDCHAR
STARTCHAR quotereversed
ENCODING 8219
SWIDTH 265 0
DWIDTH 4 0
BBX 3 4 2 6
BITMAP
C0
E0
40
60
ENDCHAR
STARTCHAR quotedblleft
ENCODING 8220
SWIDTH 464 0
DWIDTH 6 0
BBX 6 4 2 6
BITMAP
6C
48
DC
D8
ENDCHAR
STARTCHAR quotedblright
ENCODING 8221
SWIDTH 464 0
DWIDTH 6 0
BBX 6 4 2 6
BITMAP
EC
6C
48
D8
ENDCHAR
STARTCHAR quotedblbase
ENCODING 8222
SWIDTH 464 0
DWIDTH 6 0
BBX 6 5 0 -3
BITMAP
6C
6C
EC
48
D8
ENDCHAR
STARTCHAR uni201F
ENCODING 8223
SWIDTH 464 0
DWIDTH 6 0
BBX 6 4 2 6
BITMAP
DC
D8
48
6C
ENDCHAR
STARTCHAR dagger
ENCODING 8224
SWIDTH 636 0
DWIDTH 9 0
BBX 7 13 2 -3
BITMAP
18
18
18
18
FE
10
30
30
30
30
60
60
60
ENDCHAR
STARTCHAR daggerdbl
ENCODING 8225
SWIDTH 636 0
DWIDTH 9 0
BBX 8 13 1 -3
BITMAP
0C
0C
0C
0C
7F
18
18
18
FE
10
30
30
30
ENDCHAR
STARTCHAR bullet
ENCODING 8226
SWIDTH 636 0
DWIDTH 9 0
BBX 5 5 3 1
BITMAP
70
F8
F8
F8
70
ENDCHAR
STARTCHAR ellipsis
ENCODING 8230
SWIDTH 1000 0
DWIDTH 14 0
BBX 11 1 2 0
BITMAP
C460
ENDCHAR
STARTCHAR perthousand
ENCODING 8240
SWIDTH 1156 0
DWIDTH 16 0
BBX 15 10 1 0
BITMAP
7840
4880
C900
DA00
7400
0BDC
1A52
3672
66F6
C39C
ENDCHAR
STARTCHAR guilsinglleft
ENCODING 8249
SWIDTH 310 0
DWIDTH 4 0
BBX 4 7 1 0
BITMAP
10
20
60
C0
40
60
20
ENDCHAR
STARTCHAR guilsinglright
ENCODING 8250
SWIDTH 310 0
DWIDTH 4 0
BBX 4 7 1 0
BITMAP
40
60
20
30
60
40
80
ENDCHAR
STARTCHAR fraction
ENCODING 8260
SWIDTH 55 0
DWIDTH 1 0
BBX 11 10 -3 0
BITMAP
0060
00C0
0180
0300
0600
0C00
1800
3000
6000
C000
ENDCHAR
STARTCHAR oneinferior
ENCODING 8321
SWIDTH 381 0
DWIDTH 5 0
BBX 3 6 -8 -3
BITMAP
60
20
20
40
40
E0
ENDCHAR
STARTCHAR twoinferior
ENCODING 8322
SWIDTH 381 0
DWIDTH 5 0
BBX 5 6 -8 -3
BITMAP
78
48
18
30
40
F0
ENDCHAR
STARTCHAR threeinferior
ENCODING 8323
SWIDTH 381 0
DWIDTH 5 0
BBX 5 6 -8 -3
BITMAP
70
58
70
10
90
E0
ENDCHAR
STARTCHAR uni20A5
ENCODING 8357
SWIDTH 969 0
DWIDTH 14 0
BBX 12 13 1 -3
BITMAP
0060
0040
0080
E7F0
6FF0
77B0
6730
4660
CE60
DE70
1000
2000
6000
ENDCHAR
STARTCHAR uni20A6
ENCODING 8358
SWIDTH 797 0
DWIDTH 11 0
BBX 12 10 1 0
BITMAP
3870
1820
1C60
3FE0
2640
2640
3FE0
2380
4180
E080
ENDCHAR
STARTCHAR uni20A9
ENCODING 8361
SWIDTH 922 0
DWIDTH 13 0
BBX 13 10 2 0
BITMAP
F238
6310
6720
7FE0
6B40
6B40
7FE0
7380
6300
6300
ENDCHAR
STARTCHAR Euro
ENCODING 8364
SWIDTH 740 0
DWIDTH 10 0
BBX 12 10 -1 0
BITMAP
03F0
0E30
1830
FF80
3800
3000
FF80
3800
1840
0F80
ENDCHAR
STARTCHAR uni20AD
ENCODING 8365
SWIDTH 746 0
DWIDTH 10 0
BBX 11 10 0 0
BITMAP
3CE0
18C0
1900
3A00
FFE0
3E00
3700
3300
6180
F3C0
ENDCHAR
STARTCHAR uni2103
ENCODING 8451
SWIDTH 986 0
DWIDTH 14 0
BBX 12 10 3 0
BITMAP
C3F0
CE30
1830
1800
3800
3000
3000
3800
1840
0F80
ENDCHAR
STARTCHAR uni2109
ENCODING 8457
SWIDTH 848 0
DWIDTH 12 0
BBX 11 10 3 0
BITMAP
CFE0
C620
0400
0C80
0F80
0C80
0C00
0800
1800
3C00
ENDCHAR
STARTCHAR trademark
ENCODING 8482
SWIDTH 1044 0
DWIDTH 15 0
BBX 14 5 2 5
BITMAP
FD9C
B5D8
21F8
2150
7318
ENDCHAR
STARTCHAR uni212A
ENCODING 8490
SWIDTH 746 0
DWIDTH 10 0
BBX 11 10 0 0
BITMAP
3CE0
18C0
1900
3A00
3C00
3E00
3700
3300
6180
F3C0
ENDCHAR
STARTCHAR uni212B
ENCODING 8491
SWIDTH 765 0
DWIDTH 11 0
BBX 11 13 0 0
BITMAP
0180
0180
0000
0100
0300
0580
0580
0980
1180
1FC0
20C0
40C0
E1E0
ENDCHAR
STARTCHAR uni2132
ENCODING 8498
SWIDTH 602 0
DWIDTH 8 0
BBX 9 10 1 0
BITMAP
0780
0300
0200
0600
2600
3E00
2600
0400
8C00
FE00
ENDCHAR
STARTCHAR minus
ENCODING 8722
SWIDTH 636 0
DWIDTH 9 0
BBX 8 1 1 3
BITMAP
FF
ENDCHAR
STARTCHAR fraction
ENCODING 8725
SWIDTH 55 0
DWIDTH 1 0
BBX 11 10 -3 0
BITMAP
0060
00C0
0180
0300
0600
0C00
1800
3000
6000
C000
ENDCHAR
STARTCHAR periodcentered
ENCODING 8729
SWIDTH 636 0
DWIDTH 9 0
BBX 2 2 4 3
BITMAP
C0
C0
ENDCHAR
STARTCHAR uni2236
ENCODING 8758
SWIDTH 265 0
DWIDTH 4 0
BBX 4 7 1 0
BITMAP
30
70
00
00
00
E0
C0
ENDCHAR
STARTCHAR uni2259
ENCODING 8793
SWIDTH 636 0
DWIDTH 9 0
BBX 9 7 1 2
BITMAP
0C00
3200
0000
FF80
0000
0000
FF80
ENDCHAR
STARTCHAR uni225A
ENCODING 8794
SWIDTH 636 0
DWIDTH 9 0
BBX 9 7 1 2
BITMAP
2600
1800
0000
FF80
0000
0000
FF80
ENDCHAR
STARTCHAR notequal
ENCODING 8800
SWIDTH 636 0
DWIDTH 9 0
BBX 10 13 1 -2
BITMAP
00C0
0080
0100
0300
0200
FF80
0C00
0800
FF80
3000
2000
4000
C000
ENDCHAR
STARTCHAR equivalence
ENCODING 8801
SWIDTH 636 0
DWIDTH 9 0
BBX 9 5 0 1
BITMAP
FF80
0000
FF80
0000
FF80
ENDCHAR
STARTCHAR uni2262
ENCODING 8802
SWIDTH 636 0
DWIDTH 9 0
BBX 10 13 0 -3
BITMAP
00C0
0080
0100
0300
FF80
0400
FF80
0800
FF80
3000
2000
4000
C000
ENDCHAR
STARTCHAR lessequal
ENCODING 8804
SWIDTH 636 0
DWIDTH 9 0
BBX 9 10 1 -2
BITMAP
0080
0300
1C00
E000
6000
1800
0600
0300
0000
FF80
ENDCHAR
STARTCHAR greaterequal
ENCODING 8805
SWIDTH 636 0
DWIDTH 9 0
BBX 9 10 0 -2
BITMAP
6000
3000
0C00
0300
0380
1C00
6000
8000
0000
FF80
ENDCHAR
STARTCHAR uni226E
ENCODING 8814
SWIDTH 636 0
DWIDTH 9 0
BBX 10 13 1 -2
BITMAP
00C0
0080
0100
0380
0300
1C00
EC00
6800
1800
3600
2300
4000
C000
ENDCHAR
STARTCHAR uni226F
ENCODING 8815
SWIDTH 636 0
DWIDTH 9 0
BBX 10 13 0 -2
BITMAP
00C0
0080
0100
6300
3200
0C00
0F00
0B80
1C00
7000
A000
4000
C000
ENDCHAR
STARTCHAR uni2270
ENCODING 8816
SWIDTH 636 0
DWIDTH 9 0
BBX 10 13 1 -3
BITMAP
00C0
0080
0180
0300
1E00
E400
6C00
1800
1600
3300
2000
FF80
C000
ENDCHAR
STARTCHAR uni2271
ENCODING 8817
SWIDTH 636 0
DWIDTH 9 0
BBX 10 13 0 -3
BITMAP
00C0
0080
6100
3300
0E00
0700
0F80
1C00
7000
B000
2000
FF80
C000
ENDCHAR
STARTCHAR fi
ENCODING -1
SWIDTH 662 0
DWIDTH 9 0
BBX 9 14 1 -3
BITMAP
0E00
1380
3780
3000
7F00
3300
2300
6300
6300
6600
6700
4000
C000
C000
ENDCHAR
STARTCHAR fl
ENCODING -1
SWIDTH 668 0
DWIDTH 9 0
BBX 9 14 1 -3
BITMAP
0F80
1980
3180
3300
7F00
3300
2300
6300
6600
6600
6700
4000
C000
C000
ENDCHAR
ENDFONT
